<?xml version="1.0" encoding="utf-8"?>
<!-- Generator: Adobe Illustrator 16.0.0, SVG Export Plug-In . SVG Version: 6.00 Build 0)  -->
<!DOCTYPE svg PUBLIC "-//W3C//DTD SVG 1.1//EN" "http://www.w3.org/Graphics/SVG/1.1/DTD/svg11.dtd">
<svg version="1.1" id="Layer_1" xmlns="http://www.w3.org/2000/svg" xmlns:xlink="http://www.w3.org/1999/xlink" x="0px" y="0px"
	 width="48px" height="48px" viewBox="0 0 48 48" enable-background="new 0 0 48 48" xml:space="preserve">
<path fill="#009688" d="M45.707,44.294l-10.6-10.601C38.141,30.328,40,25.887,40,21c0-10.493-8.506-19-19-19C10.507,2,2,10.507,2,21
	c0,10.494,8.507,19,19,19c4.887,0,9.328-1.859,12.693-4.893l10.6,10.6C44.475,45.889,44.725,46,45,46c0.553,0,1-0.447,1-1
	C46,44.725,45.889,44.475,45.707,44.294 M21,38.001c-9.389,0-17-7.612-17-17.001c0-9.389,7.611-17,17-17c9.389,0,17,7.611,17,17
	C38,30.389,30.389,38.001,21,38.001"/>
</svg>
