<?xml version="1.0" encoding="utf-8"?>
<!-- Generator: Adobe Illustrator 16.0.0, SVG Export Plug-In . SVG Version: 6.00 Build 0)  -->
<!DOCTYPE svg PUBLIC "-//W3C//DTD SVG 1.1//EN" "http://www.w3.org/Graphics/SVG/1.1/DTD/svg11.dtd">
<svg version="1.1" id="Layer_1" xmlns="http://www.w3.org/2000/svg" xmlns:xlink="http://www.w3.org/1999/xlink" x="0px" y="0px"
	 width="40px" height="40px" viewBox="0 0 40 40" enable-background="new 0 0 40 40" xml:space="preserve">
<path fill="#445862" d="M29.707,19.293l-18-19C11.526,0.112,11.276,0,11,0c-0.553,0-1,0.447-1,1c0,0.276,0.112,0.526,0.293,0.707
	L27.623,20l-17.33,18.293C10.112,38.475,10,38.725,10,39c0,0.553,0.447,1,1,1c0.276,0,0.526-0.111,0.707-0.293l18-19
	C29.888,20.526,30,20.276,30,20S29.888,19.475,29.707,19.293"/>
</svg>
