<?xml version="1.0" encoding="utf-8"?>
<!-- Generator: Adobe Illustrator 16.0.0, SVG Export Plug-In . SVG Version: 6.00 Build 0)  -->
<!DOCTYPE svg PUBLIC "-//W3C//DTD SVG 1.1//EN" "http://www.w3.org/Graphics/SVG/1.1/DTD/svg11.dtd">
<svg version="1.1" id="Layer_1" xmlns="http://www.w3.org/2000/svg" xmlns:xlink="http://www.w3.org/1999/xlink" x="0px" y="0px"
	 width="40px" height="40px" viewBox="0 0 40 40" enable-background="new 0 0 40 40" xml:space="preserve">
<path fill="#445862" d="M12.377,20l17.33-18.293C29.889,1.526,30,1.276,30,1c0-0.553-0.447-1-1-1c-0.276,0-0.525,0.112-0.707,0.293
	l-18,19C10.112,19.475,10,19.725,10,20c0,0.276,0.111,0.526,0.293,0.707l18,19C28.475,39.889,28.724,40,29,40c0.553,0,1-0.447,1-1
	c0-0.275-0.111-0.525-0.293-0.707L12.377,20z"/>
</svg>
