<?xml version="1.0" encoding="utf-8"?>
<!-- Generator: Adobe Illustrator 16.0.0, SVG Export Plug-In . SVG Version: 6.00 Build 0)  -->
<!DOCTYPE svg PUBLIC "-//W3C//DTD SVG 1.1//EN" "http://www.w3.org/Graphics/SVG/1.1/DTD/svg11.dtd">
<svg version="1.1" id="Layer_1" xmlns="http://www.w3.org/2000/svg" xmlns:xlink="http://www.w3.org/1999/xlink" x="0px" y="0px"
	 width="48px" height="48px" viewBox="0 0 48 48" enable-background="new 0 0 48 48" xml:space="preserve">
<path fill="#ECEEF0" d="M24,2C11.85,2,2,11.85,2,24s9.85,22,22,22c12.15,0,22-9.85,22-22S36.15,2,24,2 M18.064,4.896
	c-0.431,0.451-0.842,0.954-1.237,1.496c-0.037,0.051-0.074,0.102-0.111,0.152c-0.793,1.113-1.508,2.396-2.127,3.832
	c-0.034,0.078-0.064,0.158-0.097,0.237c-0.036,0.087-0.065,0.181-0.101,0.269c-1.236-0.603-2.339-1.324-3.309-2.131
	C13.104,7.033,15.465,5.703,18.064,4.896 M9.637,10.109c1.183,1.012,2.54,1.908,4.065,2.639c-0.027,0.082-0.055,0.164-0.082,0.246
	c-0.48,1.521-0.865,3.15-1.138,4.873c-0.034,0.217-0.061,0.438-0.092,0.658c-0.092,0.655-0.167,1.32-0.226,1.998
	c-0.022,0.252-0.046,0.502-0.063,0.758c-0.038,0.564-0.047,1.144-0.064,1.719H4.042C4.288,17.996,6.379,13.484,9.637,10.109
	 M4.042,25h7.996c0.017,0.576,0.026,1.155,0.064,1.719c0.017,0.256,0.041,0.506,0.063,0.758c0.059,0.678,0.134,1.344,0.226,1.998
	c0.031,0.221,0.058,0.441,0.092,0.659c0.273,1.722,0.657,3.352,1.138,4.872c0.027,0.083,0.055,0.165,0.082,0.247
	c-1.525,0.729-2.882,1.626-4.065,2.639C6.379,34.516,4.288,30.004,4.042,25 M11.083,39.248c0.97-0.806,2.073-1.528,3.309-2.131
	c0.036,0.088,0.065,0.184,0.101,0.27c0.033,0.078,0.063,0.159,0.097,0.236c0.619,1.436,1.334,2.719,2.127,3.832
	c0.037,0.052,0.074,0.102,0.111,0.152c0.395,0.542,0.806,1.046,1.237,1.496C15.465,42.297,13.104,40.966,11.083,39.248 M23,43.899
	c-2.778-0.552-5.215-3.382-6.849-7.536c2.066-0.766,4.389-1.219,6.849-1.32V43.899z M23,33.045
	c-2.684,0.104-5.224,0.598-7.496,1.441c-0.86-2.785-1.394-6.015-1.48-9.486H23V33.045z M23,23h-8.976
	c0.086-3.472,0.62-6.701,1.48-9.486c2.272,0.844,4.812,1.338,7.496,1.442V23z M23,12.957c-2.46-0.102-4.783-0.555-6.849-1.32
	C17.785,7.482,20.222,4.652,23,4.101V12.957z M43.959,23h-7.996c-0.018-0.575-0.025-1.154-0.063-1.719
	c-0.019-0.256-0.041-0.506-0.063-0.758c-0.059-0.678-0.134-1.343-0.226-1.998c-0.031-0.22-0.058-0.441-0.093-0.658
	c-0.272-1.723-0.657-3.353-1.137-4.873c-0.027-0.082-0.056-0.164-0.082-0.246c1.524-0.73,2.881-1.627,4.063-2.639
	C41.621,13.484,43.711,17.996,43.959,23 M36.918,8.752c-0.97,0.807-2.074,1.528-3.31,2.131c-0.035-0.088-0.063-0.182-0.101-0.269
	c-0.033-0.079-0.063-0.159-0.097-0.237c-0.618-1.436-1.335-2.719-2.128-3.832c-0.036-0.051-0.072-0.102-0.109-0.152
	c-0.396-0.542-0.807-1.045-1.237-1.496C32.534,5.703,34.896,7.033,36.918,8.752 M25,4.101c2.777,0.552,5.215,3.382,6.848,7.536
	c-2.065,0.766-4.389,1.219-6.848,1.32V4.101z M25,14.956c2.684-0.104,5.225-0.599,7.496-1.442c0.859,2.785,1.395,6.015,1.48,9.486
	H25V14.956z M25,25h8.977c-0.086,3.472-0.621,6.701-1.48,9.486c-2.271-0.844-4.813-1.338-7.496-1.441V25z M25,43.899v-8.856
	c2.459,0.102,4.782,0.555,6.848,1.32C30.215,40.518,27.777,43.348,25,43.899 M29.937,43.104c0.431-0.45,0.841-0.954,1.237-1.496
	c0.037-0.051,0.073-0.101,0.109-0.152c0.793-1.113,1.51-2.396,2.128-3.832c0.033-0.077,0.063-0.158,0.097-0.236
	c0.037-0.086,0.065-0.182,0.101-0.27c1.235,0.603,2.34,1.325,3.31,2.131C34.896,40.966,32.534,42.297,29.937,43.104 M38.362,37.892
	c-1.183-1.013-2.539-1.909-4.063-2.639c0.026-0.082,0.055-0.164,0.082-0.247c0.479-1.521,0.864-3.15,1.137-4.872
	c0.035-0.218,0.062-0.438,0.093-0.659c0.092-0.654,0.167-1.32,0.226-1.998c0.022-0.252,0.045-0.502,0.063-0.758
	c0.038-0.563,0.046-1.143,0.063-1.719h7.996C43.711,30.004,41.621,34.516,38.362,37.892"/>
</svg>
