<?xml version="1.0" encoding="utf-8"?>
<!-- Generator: Adobe Illustrator 16.0.0, SVG Export Plug-In . SVG Version: 6.00 Build 0)  -->
<!DOCTYPE svg PUBLIC "-//W3C//DTD SVG 1.1//EN" "http://www.w3.org/Graphics/SVG/1.1/DTD/svg11.dtd">
<svg version="1.1" id="Layer_1" xmlns="http://www.w3.org/2000/svg" xmlns:xlink="http://www.w3.org/1999/xlink" x="0px" y="0px"
	 width="120px" height="130px" viewBox="0 0 120 130" enable-background="new 0 0 120 130" xml:space="preserve">
<g>
	<g>
		<g>
			<rect x="17.928" y="29.493" fill="#E4E6E9" width="84.511" height="63.485"/>
			<rect x="17.928" y="29.493" fill="#AEBBC2" width="84.511" height="6.065"/>
			<rect x="48.66" y="31.01" fill="#FFFFFF" width="50.142" height="3.032"/>
			<circle fill="#424852" cx="21.163" cy="32.526" r="1.213"/>
			<circle fill="#D27D6D" cx="25.005" cy="32.526" r="1.213"/>
			<circle fill="#309FB2" cx="28.846" cy="32.526" r="1.213"/>
		</g>
		<g>
			<g>
				<g>
					<polygon fill="#DA988E" points="78.488,74.289 78.488,69.375 78.488,55.024 68.206,44.738 39.52,44.738 39.52,55.365 
						39.52,69.375 39.52,74.289 					"/>
					<g>
						<polygon fill="#F7F8FC" points="68.206,55.024 78.488,55.024 68.206,44.738 						"/>
						<polygon fill="#D27D6D" points="78.488,55.024 68.206,55.024 78.488,65.307 						"/>
					</g>
				</g>
			</g>
			<rect x="41.402" y="46.465" fill="#D27D6D" width="25.056" height="6.45"/>
			<rect x="41.402" y="53.781" fill="#D27D6D" width="25.056" height="6.451"/>
			<rect x="41.402" y="65.564" fill="#D27D6D" width="10.419" height="6.451"/>
		</g>
		<g>
			<g>
				<polygon fill="#36A1B7" points="33.835,64.036 33.835,60.826 33.835,51.455 27.121,44.738 8.388,44.738 8.388,51.678 
					8.388,60.826 8.388,64.036 				"/>
				<g>
					<polygon fill="#F7F8FC" points="27.121,51.455 33.835,51.455 27.121,44.738 					"/>
					<polygon fill="#2A8492" points="33.835,51.455 27.121,51.455 33.835,58.17 					"/>
				</g>
			</g>
		</g>
		<g>
			<g>
				<polygon fill="#E8C467" points="110.575,66.766 110.575,63.555 110.575,54.184 103.859,47.468 85.127,47.468 85.127,54.407 
					85.127,63.555 85.127,66.766 				"/>
				<g>
					<polygon fill="#F7F8FB" points="103.859,54.184 110.575,54.184 103.859,47.468 					"/>
					<polygon fill="#E4B146" points="110.575,54.184 103.859,54.184 110.575,60.899 					"/>
				</g>
			</g>
		</g>
		<g>
			<g>
				<polygon fill="#77A97F" points="89.572,93.145 89.572,88.743 89.572,75.893 80.363,66.682 54.674,66.682 54.674,76.195 
					54.674,88.743 54.674,93.145 				"/>
				<g>
					<polygon fill="#F7F8FC" points="80.363,75.893 89.572,75.893 80.363,66.682 					"/>
					<polygon fill="#68936E" points="89.572,75.893 80.363,75.893 89.572,85.1 					"/>
				</g>
			</g>
		</g>
		<circle fill="#474E58" cx="43.925" cy="49.316" r="2.151"/>
		<g>
			<polygon fill="#474E58" points="44.559,59.13 25.897,59.13 25.897,57.53 42.959,57.53 42.959,49.151 44.559,49.151 			"/>
		</g>
		<circle fill="#474E58" cx="47.646" cy="68.666" r="2.15"/>
		<g>
			<polygon fill="#474E58" points="65.673,84.434 47.012,84.434 47.012,68.502 48.611,68.502 48.611,82.834 65.673,82.834 			"/>
		</g>
		<circle fill="#474E58" cx="61.662" cy="56.884" r="2.15"/>
		<g>
			<polygon fill="#474E58" points="91.266,64.134 61.027,64.134 61.027,56.717 62.627,56.717 62.627,62.534 91.266,62.534 			"/>
		</g>
	</g>
	<g>
		<rect x="45.488" y="100.691" fill="#EDD480" width="13.074" height="1.6"/>
	</g>
	<g>
		<path fill="#EDD480" d="M35.667,106.357l-4.868-4.866l4.868-4.868l4.867,4.868L35.667,106.357z M31.93,101.491l3.737,3.735
			l3.736-3.735l-3.736-3.737L31.93,101.491z"/>
	</g>
	<g>
		<path fill="#36A1B7" d="M53.13,23.623V14.5l7.902,4.561L53.13,23.623z M53.93,15.886v6.354l5.502-3.176L53.93,15.886z"/>
	</g>
	<g>
		<path fill="#36A1B7" d="M107.479,21.061c-1.047,0-1.527-0.967-1.955-1.821c-0.428-0.857-0.726-1.378-1.238-1.378
			c-0.516,0-0.811,0.521-1.237,1.378c-0.426,0.854-0.907,1.821-1.952,1.821c-1.046,0-1.527-0.967-1.953-1.821
			c-0.428-0.857-0.725-1.378-1.236-1.378s-0.809,0.521-1.235,1.378c-0.426,0.854-0.907,1.821-1.953,1.821
			c-1.045,0-1.526-0.967-1.952-1.821c-0.429-0.857-0.726-1.378-1.238-1.378c-0.512,0-0.809,0.521-1.235,1.378
			c-0.426,0.854-0.908,1.821-1.952,1.821c-1.046,0-1.527-0.967-1.953-1.821c-0.429-0.857-0.725-1.378-1.236-1.378
			c-0.515,0-0.811,0.521-1.236,1.378c-0.426,0.854-0.906,1.821-1.951,1.821s-1.527-0.967-1.952-1.821
			c-0.428-0.857-0.724-1.378-1.235-1.378c-0.514,0-0.81,0.521-1.235,1.378c-0.427,0.854-0.907,1.821-1.952,1.821
			c-1.044,0-1.523-0.967-1.951-1.821c-0.427-0.857-0.724-1.378-1.234-1.378c-0.512,0-0.81,0.521-1.235,1.378
			c-0.425,0.854-0.907,1.821-1.951,1.821s-1.524-0.967-1.948-1.821c-0.428-0.857-0.725-1.378-1.233-1.378v-0.8
			c1.043,0,1.522,0.968,1.948,1.822c0.429,0.857,0.725,1.377,1.233,1.377c0.513,0,0.81-0.521,1.235-1.377
			c0.427-0.854,0.906-1.822,1.951-1.822s1.525,0.968,1.951,1.822c0.428,0.857,0.725,1.377,1.234,1.377
			c0.514,0,0.811-0.521,1.234-1.377c0.428-0.854,0.908-1.822,1.953-1.822s1.526,0.968,1.951,1.821
			c0.428,0.858,0.726,1.378,1.236,1.378c0.512,0,0.809-0.521,1.236-1.378c0.425-0.854,0.908-1.821,1.951-1.821
			c1.045,0,1.526,0.967,1.953,1.821c0.428,0.858,0.725,1.378,1.236,1.378s0.811-0.521,1.237-1.378
			c0.425-0.854,0.905-1.821,1.95-1.821s1.527,0.967,1.953,1.821c0.43,0.858,0.727,1.378,1.237,1.378c0.513,0,0.81-0.521,1.237-1.378
			c0.425-0.854,0.906-1.821,1.951-1.821c1.046,0,1.527,0.967,1.953,1.821c0.428,0.858,0.725,1.378,1.235,1.378
			c0.515,0,0.812-0.521,1.237-1.378c0.426-0.854,0.906-1.821,1.953-1.821c1.046,0,1.527,0.967,1.953,1.821
			c0.43,0.857,0.728,1.378,1.24,1.378c0.516,0,0.813-0.521,1.24-1.378c0.428-0.854,0.909-1.821,1.956-1.821v0.8
			c-0.515,0-0.812,0.521-1.239,1.379C109.009,20.094,108.525,21.061,107.479,21.061z"/>
	</g>
	<g>
		<rect x="64.037" y="110.547" fill="#D27D6D" width="44.654" height="1.6"/>
	</g>
	<g>
		<path fill="#D27D6D" d="M54.463,114.5c-1.724,0-3.127-1.402-3.127-3.126c0-1.726,1.403-3.128,3.127-3.128
			c1.725,0,3.127,1.402,3.127,3.128C57.59,113.098,56.188,114.5,54.463,114.5z M54.463,109.046c-1.283,0-2.327,1.045-2.327,2.328
			s1.044,2.326,2.327,2.326c1.284,0,2.328-1.043,2.328-2.326S55.747,109.046,54.463,109.046z"/>
	</g>
</g>
</svg>
