<?xml version="1.0" encoding="utf-8"?>
<!-- Generator: Adobe Illustrator 16.0.0, SVG Export Plug-In . SVG Version: 6.00 Build 0)  -->
<!DOCTYPE svg PUBLIC "-//W3C//DTD SVG 1.1//EN" "http://www.w3.org/Graphics/SVG/1.1/DTD/svg11.dtd">
<svg version="1.1" id="Layer_1" xmlns="http://www.w3.org/2000/svg" xmlns:xlink="http://www.w3.org/1999/xlink" x="0px" y="0px"
	 width="120px" height="130px" viewBox="0 0 120 130" enable-background="new 0 0 120 130" xml:space="preserve">
<g>
	<g>
		<g>
			<path fill="#30363D" d="M105.214,70.273V17.962c0-1.357-1.103-2.462-2.461-2.462H17.802c-1.356,0-2.46,1.104-2.46,2.462v52.313
				h89.872V70.273z"/>
			<path fill="#B0BEC5" d="M15.165,70.374v7.563c0,1.455,1.18,2.638,2.637,2.638h84.951c1.457,0,2.642-1.181,2.642-2.638v-7.563
				H15.165z"/>
			<path fill="#B0BEC5" d="M75.816,91.717c0,0-0.651-0.32-1.403-0.604c-0.802-0.303-1.765-0.68-2.332-0.951
				c-0.994-0.479-1.08-0.791-1.45-2.418c-0.406-1.778-0.789-5.531-0.941-7.168H50.87c-0.155,1.637-0.534,5.39-0.941,7.168
				c-0.371,1.627-0.455,1.939-1.451,2.418c-0.561,0.27-1.51,0.643-2.306,0.941l0,0c-0.763,0.287-1.386,0.508-1.386,0.508
				s-0.604,0.337,0.367,0.385h30.254C76.32,92.014,75.816,91.717,75.816,91.717z"/>
			<path fill="#90A4AE" d="M69.887,82.552c-0.085-0.778-0.152-1.478-0.199-1.978H50.868c-0.045,0.5-0.116,1.197-0.199,1.978H69.887z
				"/>
			<polygon display="none" fill="#474E58" points="31.485,70.273 50.189,70.273 84.379,15.501 65.675,15.501 			"/>
			<polygon display="none" fill="#474E58" points="55.532,70.273 62.357,70.273 96.549,15.501 89.723,15.501 			"/>
			<rect x="19.517" y="19.721" fill="#D27D6D" width="81.521" height="45.904"/>
			<polygon fill="#DA988E" points="34.386,65.625 53.089,65.625 81.743,19.721 63.039,19.721 			"/>
			<polygon fill="#DA988E" points="65.264,65.625 93.914,19.721 87.086,19.721 58.434,65.625 			"/>
		</g>
		<g>
			<path fill="#586171" d="M91.354,90.62c0,0.758-0.615,1.374-1.375,1.374h-23.07c-0.76,0-1.372-0.615-1.372-1.374V56.987
				c0-0.758,0.612-1.371,1.372-1.371h23.07c0.76,0,1.375,0.613,1.375,1.371V90.62z"/>
			<path fill="#30363D" d="M66.907,91.783c-0.642,0-1.163-0.52-1.163-1.163V56.987c0-0.641,0.521-1.163,1.163-1.163h23.069
				c0.646,0,1.168,0.522,1.168,1.163V90.62c0,0.644-0.521,1.163-1.168,1.163H66.907L66.907,91.783z"/>
			<g>
				<path fill="#586171" d="M78.675,57.239c0,0.129-0.104,0.229-0.233,0.229c-0.125,0-0.229-0.101-0.229-0.229
					c0-0.128,0.104-0.231,0.229-0.231C78.568,57.008,78.675,57.11,78.675,57.239z"/>
			</g>
			<path fill="#586171" d="M79.648,90.489c0,0.143-0.115,0.257-0.258,0.257h-1.896c-0.143,0-0.256-0.114-0.256-0.257v-0.519
				c0-0.143,0.113-0.26,0.256-0.26h1.896c0.142,0,0.258,0.117,0.258,0.26V90.489L79.648,90.489z"/>
			<rect x="67.212" y="58.606" fill="#309FB2" width="22.462" height="29.969"/>
			<g>
				<polygon fill="#3DB4CC" points="67.212,68.154 67.212,77.748 78.993,58.606 73.089,58.606 				"/>
				<polygon fill="#3DB4CC" points="67.212,83.066 82.264,58.606 80.02,58.606 67.212,79.418 				"/>
			</g>
		</g>
		<g>
			<g>
				<path fill="#474E58" d="M95.092,90.389c0,0.883-0.721,1.605-1.603,1.605h-9.585c-0.883,0-1.604-0.723-1.604-1.605V67.682
					c0-0.882,0.722-1.604,1.604-1.604h9.584c0.881,0,1.603,0.722,1.603,1.604L95.092,90.389L95.092,90.389z"/>
			</g>
			<g>
				<path fill="#30363D" d="M84.152,91.746c-0.885,0-1.605-0.723-1.605-1.604V67.93c0-0.882,0.721-1.604,1.605-1.604h9.088
					c0.885,0,1.605,0.723,1.605,1.604v22.213c0,0.881-0.722,1.604-1.605,1.604L84.152,91.746L84.152,91.746z"/>
			</g>
			<g>
				<circle fill="#586171" cx="86.958" cy="67.662" r="0.216"/>
				<path fill="#586171" d="M88.814,66.913c0,0.075-0.063,0.138-0.143,0.138c-0.072,0-0.138-0.063-0.138-0.138
					c0-0.077,0.063-0.142,0.138-0.142C88.752,66.771,88.814,66.836,88.814,66.913z"/>
				<path fill="#586171" d="M89.527,67.643c0,0.058-0.047,0.102-0.101,0.102h-1.481c-0.059,0-0.104-0.044-0.104-0.102l0,0
					c0-0.058,0.046-0.103,0.104-0.103h1.481C89.48,67.54,89.527,67.585,89.527,67.643L89.527,67.643z"/>
			</g>
			<path fill="#586171" d="M89.579,90.614c0,0.104-0.082,0.185-0.185,0.185h-1.356c-0.104,0-0.187-0.081-0.187-0.185v-0.368
				c0-0.104,0.082-0.188,0.187-0.188h1.356c0.103,0,0.185,0.084,0.185,0.188V90.614z"/>
			<polygon fill="#30363D" points="82.529,70.116 82.529,70.116 82.229,70.116 82.229,70.116 82.229,69.127 82.229,69.127 
				82.529,69.127 82.529,69.127 			"/>
			<polygon fill="#30363D" points="82.529,72.709 82.529,72.709 82.229,72.709 82.229,72.709 82.229,71.038 82.229,71.038 
				82.529,71.038 82.529,71.038 			"/>
			<polygon fill="#30363D" points="82.529,74.682 82.529,74.682 82.229,74.682 82.229,74.682 82.229,73.093 82.229,73.093 
				82.529,73.093 82.529,73.093 			"/>
			<g>
				<rect x="83.07" y="69.021" fill="#E8C467" width="11.229" height="19.928"/>
				<polygon fill="#EDD480" points="83.07,75.425 83.07,81.863 90.977,69.021 87.014,69.021 				"/>
				<polygon fill="#EDD480" points="83.07,85.43 93.169,69.021 91.662,69.021 83.07,82.98 				"/>
			</g>
		</g>
	</g>
	<g>
		<path fill="#30363D" d="M35.938,105.727H16.862c-0.232,0-0.42-0.188-0.42-0.42V86.229c0-0.23,0.188-0.42,0.42-0.42h9.465
			c0.232,0,0.42,0.188,0.42,0.42c0,0.232-0.188,0.422-0.42,0.422h-9.045v18.235h18.236v-9.048c0-0.232,0.188-0.42,0.42-0.42
			s0.42,0.188,0.42,0.42v9.469C36.358,105.538,36.17,105.727,35.938,105.727z"/>
	</g>
	<g>
		<g>
			<path fill="#30363D" d="M35.938,91.83c-0.232,0-0.42-0.188-0.42-0.421l-0.001-4.755l-4.756-0.002c-0.232,0-0.42-0.188-0.42-0.42
				c0-0.233,0.188-0.42,0.42-0.42l0,0h5.177c0.231,0,0.42,0.188,0.42,0.42l0.001,5.177C36.358,91.643,36.17,91.83,35.938,91.83z"/>
		</g>
		<g>
			<path fill="#30363D" d="M27.737,94.854c-0.107,0-0.215-0.041-0.297-0.123c-0.164-0.164-0.164-0.432,0-0.596l7.494-7.492
				c0.164-0.164,0.431-0.164,0.594,0c0.164,0.164,0.164,0.431,0,0.594l-7.494,7.494C27.952,94.813,27.844,94.854,27.737,94.854z"/>
		</g>
	</g>
	<g>
		<path fill="#36A1B7" d="M48.536,105.727h-9.51c-0.231,0-0.42-0.188-0.42-0.42v-9.511c0-0.231,0.188-0.42,0.42-0.42h9.51
			c0.232,0,0.42,0.188,0.42,0.42v9.511C48.956,105.538,48.768,105.727,48.536,105.727z M39.446,104.886h8.669v-8.67h-8.669V104.886z
			"/>
	</g>
	<g>
		<path fill="#E8C467" d="M45.895,115.5h-6.869c-0.231,0-0.42-0.188-0.42-0.42v-6.868c0-0.231,0.188-0.421,0.42-0.421h6.869
			c0.231,0,0.42,0.189,0.42,0.421v6.868C46.314,115.313,46.126,115.5,45.895,115.5z M39.446,114.66h6.028v-6.028h-6.028V114.66z"/>
	</g>
	<g>
		<path fill="#D27D6D" d="M35.939,112.678h-4.045c-0.232,0-0.42-0.188-0.42-0.42v-4.046c0-0.229,0.188-0.421,0.42-0.421h4.045
			c0.232,0,0.42,0.189,0.42,0.421v4.046C36.359,112.489,36.171,112.678,35.939,112.678z M32.313,111.837h3.206v-3.205h-3.206
			V111.837z"/>
	</g>
</g>
</svg>
