<?xml version="1.0" encoding="utf-8"?>
<!-- Generator: Adobe Illustrator 16.0.0, SVG Export Plug-In . SVG Version: 6.00 Build 0)  -->
<!DOCTYPE svg PUBLIC "-//W3C//DTD SVG 1.1//EN" "http://www.w3.org/Graphics/SVG/1.1/DTD/svg11.dtd">
<svg version="1.1" id="Layer_1" xmlns="http://www.w3.org/2000/svg" xmlns:xlink="http://www.w3.org/1999/xlink" x="0px" y="0px"
	 width="120px" height="130px" viewBox="0 0 120 130" enable-background="new 0 0 120 130" xml:space="preserve">
<g>
	<g>
		<g>
			<path fill="#36A1B7" d="M34.61,33.263c-14.161,0-25.684,11.522-25.684,25.679c0,14.161,11.523,25.679,25.684,25.679
				c14.16,0,25.678-11.518,25.678-25.679C60.288,44.785,48.77,33.263,34.61,33.263z"/>
			<path fill="#309FB2" d="M35.738,33.291c8.627,4.145,14.6,12.972,14.6,23.163c0,14.163-11.518,25.677-25.676,25.677
				c-0.378,0-0.755-0.01-1.132-0.026c3.357,1.611,7.115,2.516,11.081,2.516c14.16,0,25.678-11.518,25.678-25.679
				C60.288,45.164,49.372,33.883,35.738,33.291z"/>
			<g>
				<path fill="#CCD3D5" d="M59.174,65.921c-0.34,0.009-0.778,0.168-0.785,0.284c-0.006,0.115-0.473,0.326-0.626,0.388
					c-0.152,0.062-0.455,0.538-0.519,0.693c-0.064,0.159-0.446,0.112-0.586,0.175c-0.141,0.063-0.432,0.297-0.433,0.438
					c0,0.139-0.08,0.124-0.172-0.035c0,0,0,0-0.188,0.194C55.646,68.3,55.646,68.3,55.646,68.3
					c-0.124,0.396-0.544,0.891-0.687,0.938c-0.143,0.036-0.17,0.73-0.17,1.008c0,0.282,0.112,0.626,0.241,0.765c0,0,0,0,0.029,0.224
					c0.05,0.44,0.05,0.44,0.05,0.44c-0.079,0.343,0.181,0.646,0.258,0.708c0.073,0.057,0.709-0.115,0.952-0.175
					c0.103-0.023,0.227-0.077,0.344-0.14c1.136-1.899,2.03-3.96,2.648-6.131C59.262,65.927,59.217,65.921,59.174,65.921z"/>
				<path fill="#CCD3D5" d="M16.774,66.579c-0.038,0.07,0.422,0.542,0.602,0.7c0.179,0.163,0.554,0.937,0.632,1.186
					c0.076,0.255,0.032,0.667,0.006,0.768c-0.023,0.094,0.085,0.311,0.104,0.397c0.015,0.09-0.156,0.845-0.093,1.146
					c0.065,0.305-0.354,1.254-0.343,1.725c0.011,0.471,0.221,1.086,0.309,1.038c0.085-0.047,0.116,0.43-0.029,0.484
					c-0.145,0.059-0.312,0.432-0.229,0.451c0.08,0.021-0.007,0.39,0.016,0.535c0.02,0.151,0.146,1.132,0.172,1.372
					c0.03,0.246,0.375,0.836,0.448,1.038c0.074,0.202,0.149,0.585,0.179,0.641c0.024,0.061,0.063,0.119,0.065,0.122
					c0.004,0.004,0.286,0.106,0.367,0.166c0.086,0.063,0.634,0.022,0.815-0.012c0.178-0.038,0.011-0.202-0.07-0.291
					c-0.079-0.091-0.15-0.523-0.244-0.568c-0.094-0.042-0.133-0.595-0.051-0.715c0.082-0.125,0.412-0.318,0.447-0.423
					c0.035-0.102,0.046-0.586-0.043-0.651c-0.087-0.066,0.025-0.649-0.039-0.94c-0.07-0.288,0.5-0.552,0.535-0.781
					c0.033-0.232,0.652-0.479,0.791-0.594c0.143-0.115,0.26-0.774,0.196-0.917c-0.067-0.141,0.225-0.257,0.361-0.257
					c0.127,0,0.277-0.093,0.327-0.093c0.05-0.005,0.208-0.294,0.29-0.362c0.085-0.064,0.259-0.763,0.412-0.877
					c0.157-0.115,0.281-0.534,0.281-0.656c0-0.125,0.235-0.491,0.313-0.602c0.077-0.112,0.652-0.375,0.756-0.419
					c0.102-0.041,0.258-0.965,0.301-1.299c0.037-0.333,0.208-0.779,0.222-0.887c0.01-0.109,0.197-0.201,0.229-0.235
					c0.037-0.038,0.173-0.461,0.263-0.557c0.088-0.098,0.41-0.505,0.417-0.596c0.005-0.087,0.053-0.319,0.104-0.513c0,0,0,0,0-0.226
					c0.005-0.36,0.005-0.36,0.005-0.36c-0.103-0.281-0.414-0.627-0.49-0.551c-0.082,0.075-0.439-0.248-0.62-0.318
					c-0.182-0.065-0.636-0.122-0.75-0.122c-0.115,0-0.513-0.326-0.69-0.382c-0.175-0.053-0.63-0.142-0.714-0.195
					c-0.081-0.052-0.193-0.728-0.558-0.948c-0.364-0.222-1.007-0.736-1.08-0.925c-0.069-0.188-0.771-0.587-0.99-0.705
					c-0.214-0.121-0.542-0.146-0.58-0.104c-0.045,0.041-0.318-0.365-0.454-0.483c-0.141-0.113-0.561-0.209-0.582-0.106
					c-0.018,0.106-0.295,0.053-0.364-0.038c-0.062-0.088-0.28,0.036-0.382,0.069c-0.101,0.031-0.45,0.563-0.609,0.694
					c-0.164,0.126-0.354-0.119-0.46-0.164c-0.104-0.046-0.506,0.079-0.617,0.155c-0.109,0.079-0.364-0.564-0.305-0.86
					c0.059-0.294-0.265-0.884-0.515-0.898c-0.252-0.014-0.329-0.631-0.278-0.859c0.048-0.228-0.453-0.371-0.576-0.383
					c-0.128-0.021-0.439,0.301-0.492,0.454c-0.056,0.154-1.192-0.21-1.057-0.891c0.133-0.68,0.674-1.383,0.806-1.47
					c0.134-0.081,0.866-0.125,1.026-0.034c0.159,0.096,0.308,0,0.335-0.041c0.025-0.041,0.62,0.008,0.8,0.08
					c0.18,0.074,0.432,0.763,0.616,0.846c0.187,0.085,0.252-0.445,0.282-0.573c0.029-0.13-0.09-0.458-0.132-0.549
					c-0.046-0.092,0.293-0.925,0.573-1.067c0.275-0.144,0.573-0.608,0.549-0.689c-0.026-0.083,0.221-0.146,0.287-0.18
					c0.069-0.035-0.011-0.71,0.102-0.856c0.109-0.146,0.632-0.456,0.8-0.523c0.162-0.07,0.287-0.497,0.229-0.571
					c-0.062-0.078,0.426-0.49,0.678-0.572c0.253-0.077,0.472,0.143,0.41,0.179c0.049-0.025,0.4-0.207,0.55-0.305
					c0.174-0.115,0-0.429-0.112-0.522c-0.109-0.091-0.042-0.46,0.091-0.492c0.134-0.032,0.25-0.35,0.217-0.419
					c-0.037-0.068,0.558,0.056,0.785-0.112c0.221-0.166,0.065,0.401-0.1,0.634c-0.166,0.226,0.121,0.444,0.227,0.401
					c0.104-0.046,0.219,0.122,0.24,0.187c0.022,0.064,0.25-0.067,0.398-0.003c0.149,0.067,0.237-0.204,0.251-0.329
					c0.011-0.124-0.36-0.383-0.417-0.532c-0.058-0.151-0.082-1.018-0.09-1.197c-0.007-0.179-0.245-0.468-0.327-0.415
					c-0.075,0.047-0.232-0.463-0.354-0.574c-0.125-0.113-0.154-0.357-0.149-0.442c0.006-0.082-0.421-0.528-0.523-0.735
					c-0.103-0.203-0.246-0.162-0.254-0.07c-0.011,0.098-0.306,0.11-0.429,0.098c-0.122-0.012-0.223-0.481-0.223-0.66
					c0-0.177-0.551-0.208-0.64-0.353c-0.089-0.141-0.449-0.075-0.507-0.173c-0.057-0.099-0.374-0.191-0.437-0.152
					c-0.064,0.034-0.032,1.311-0.091,1.655c-0.063,0.345-0.354,0.648-0.461,0.64c-0.106-0.007-0.042,0.248,0.031,0.224
					c0.075-0.023-0.208,0.377-0.246,0.64c-0.037,0.259-0.303-0.014-0.344-0.251c-0.044-0.237-0.305-0.561-0.351-0.478
					c-0.051,0.081-0.231-0.097-0.309-0.046c-0.077,0.053-0.566-0.286-0.767-0.396c-0.196-0.104-0.31-0.712-0.421-0.766
					c-0.115-0.052-0.017-0.128-0.021-0.22c-0.003-0.091,0.384-0.443,0.501-0.584c0.114-0.139,0.542-0.694,0.708-0.813
					c0.17-0.117,0.3-0.434,0.271-0.494c-0.029-0.055,0.721-0.291,0.925-0.359c0.203-0.07,0.382-0.639,0.407-0.801
					c0.025-0.16-0.129-0.47-0.22-0.51c-0.095-0.038,0.281-0.056,0.406,0.009c0.129,0.061,0.512-0.115,0.668-0.033
					c0.15,0.08,0.46,0.262,0.682,0.404c0,0,0,0-0.048,0.414c-0.093,0.705-0.093,0.705-0.093,0.705
					c-0.59,0.245-0.757,0.669-0.552,0.661c0.208-0.01,1.151,0.41,1.416,0.6c0.268,0.19,0.351-0.274,0.428-0.434
					c0.082-0.154,0.056-0.607-0.008-0.693c-0.064-0.091,0.309-0.062,0.412,0.041c0.106,0.1,0.227-0.104,0.311-0.141
					c0.079-0.036,0.12-0.422,0.164-0.5c0.042-0.078-0.181-0.157-0.185-0.256c-0.009-0.097-0.431-0.283-0.567-0.348
					c-0.143-0.065-0.176-0.357-0.106-0.408c0.068-0.051-0.046-0.422-0.113-0.548c-0.066-0.123-0.511-0.223-0.658-0.223
					c-0.148,0-0.301-0.344-0.383-0.392c-0.089-0.05-0.655-0.113-0.797-0.07c-0.141,0.041-0.396-0.403-0.633-0.269
					c-0.239,0.136-0.485-0.159-0.591-0.217c-0.109-0.061-0.664,0.539-0.661,0.958c0.007,0.418,0.216,0.823,0.305,0.836
					c0.088,0.014-0.019,0.392-0.117,0.501c-0.096,0.107-0.331-0.116-0.241-0.213c0.087-0.091-0.241-0.531-0.355-0.711
					c-0.081-0.13-0.37-0.242-0.567-0.32c-0.115,0.122-0.224,0.248-0.336,0.377c0.042,0.153,0.093,0.352,0.044,0.5
					c-0.082,0.258-0.299,0.296-0.311,0.187c-0.004-0.049-0.112-0.088-0.24-0.104c-3.111,3.729-5.18,8.355-5.774,13.424
					c0.124,0.139,0.265,0.31,0.3,0.428c0.074,0.224,0.464,0.371,0.54,0.421c0.07,0.042,0.098-0.433,0.045-0.557
					c-0.051-0.124,0.094-0.199,0.092-0.106c-0.001,0.092,0.365,0.512,0.49,0.663c0.121,0.152,0.25,1.129,0.367,1.339
					c0.116,0.212,1.249,0.648,1.612,0.723c0.362,0.077,0.822,0.484,0.894,0.602c0.069,0.118,0.556,0.177,0.658,0.225
					c0.104,0.049,0.352,0.376,0.456,0.441c0.102,0.07,0.183,0.267,0.183,0.316c0,0.052,0.639,0.293,0.795,0.465
					c0.154,0.17,0.411,0.125,0.458,0.052c0.048-0.068,0.175,0.341,0.242,0.48c0.064,0.145,0.078,0.493,0.029,0.55
					c-0.05,0.053-0.142,0.694-0.248,0.823c-0.111,0.129-0.336,1.063-0.289,1.247c0.05,0.186,0.35,0.565,0.48,0.623
					c0.126,0.054,0.073,0.255-0.027,0.269c-0.103,0.015-0.055,0.906,0.187,1.037C16.609,66.117,16.809,66.514,16.774,66.579z"/>
				<path fill="#CCD3D5" d="M19.795,50.938l0.001-0.003C19.789,50.943,19.786,50.943,19.795,50.938z"/>
				<path fill="#CCD3D5" d="M18.042,40.109c0.306-0.054,0.817-0.139,0.85-0.225c0.027-0.07,0.029-0.279-0.027-0.354
					c0.047,0.001,0.105,0.007,0.15,0.007c0.113,0,0.309-0.642,0.433-0.791c0.121-0.149,0.825-0.372,0.993-0.472
					c0.164-0.102,0.532-0.454,0.674-0.495c0.141-0.041,0.346-0.37,0.314-0.438c-0.03-0.064,0.476-0.373,0.67-0.452
					c0.191-0.083,0.293-0.311,0.218-0.319c-0.045-0.004-1.12,0.557-2.1,1.114c-1.122,0.761-2.173,1.611-3.161,2.537
					C17.365,40.199,17.84,40.143,18.042,40.109z"/>
				<path fill="#CCD3D5" d="M36.614,72.071c0.327-0.197,0.885-1.023,1.07-1.195c0.182-0.172,0.315-0.799,0.356-0.936
					c0.036-0.136,0.315-0.354,0.418-0.388c0.107-0.03,0.435-1.413,0.729-1.716c0.296-0.302,0.637-1.766,0.6-2.292
					c-0.037-0.524,0.188-1.531,0.257-1.771c0.071-0.24,0.438-0.67,0.551-0.756c0.111-0.092,0.818-1.136,1.046-1.509
					c0.227-0.375,0.44-1.199,0.398-1.39c-0.042-0.193-0.535-0.327-0.626-0.234c-0.09,0.096-0.553,0.174-0.7,0.174
					c-0.15,0-0.49-0.791-0.7-0.955c-0.209-0.162-0.398-1.07-0.522-1.241c-0.119-0.172-0.46-0.606-0.563-0.707
					c-0.106-0.1-0.125-0.578-0.15-0.712c-0.023-0.131,0.204,0.086,0.245,0.276c0.039,0.191,0.582,0.965,0.751,1.227
					c0.169,0.261,0.611,1.092,0.724,1.347c0.117,0.261,1.101,0.131,1.42-0.02c0.32-0.15,0.722-0.409,0.735-0.499
					c0.018-0.086,0.524-0.322,0.667-0.437c0.142-0.113,0.27-0.706,0.359-0.801c0.093-0.098-0.071-0.663-0.179-0.833
					c-0.106-0.168-0.619-0.304-0.72-0.235c-0.107,0.067-0.327-0.38-0.409-0.543c-0.075-0.166-0.466-0.365-0.507-0.479
					c-0.043-0.112,0.102-0.287,0.166-0.327c0.061-0.041,0.782,0.467,0.993,0.722c0.207,0.251,0.444,0.715,0.484,0.795
					c0.036,0.08,0.605,0.123,0.733,0.025c0.129-0.092,0.275-0.067,0.325,0.055c0,0,0,0,0.18-0.03c0.627-0.1,0.627-0.1,0.627-0.1
					c0.29,0.322,0.379,0.599,0.373,0.664c-0.007,0.06,0.182,0.322,0.302,0.348c0.121,0.032,0.209,0.44,0.245,0.539
					c0.04,0.104,0.393,0.716,0.467,0.974c0.074,0.261,0.377,0.761,0.45,0.895c0.074,0.136,0.134,0.525,0.134,0.634
					c0,0.104,0.229,0.315,0.37,0.305c0.141-0.01,0.428-0.907,0.496-1.238c0.064-0.334,0.298-0.609,0.36-0.609
					c0.067,0,0.12-0.188,0.12-0.258s0.361-0.063,0.392-0.153s0.139-0.686,0.268-0.772c0.132-0.091,0.589-0.393,0.752-0.447
					c0.161-0.058,0.57,0.297,0.663,0.464c0.091,0.164,0.176,0.586,0.14,0.654s0.216,0.433,0.436,0.429
					c0.218-0.009,0.288,0.276,0.293,0.379c0.008,0.104,0.297,0.395,0.355,0.526c0.058,0.131,0.041,0.49,0,0.568
					c-0.038,0.083-0.011,0.553,0.032,0.685c0.04,0.129,0.711,0.813,0.967,1.021c0.252,0.205,0.37-0.425,0.243-0.619
					c-0.129-0.197-0.571-0.65-0.672-0.784c-0.103-0.14-0.123-0.686-0.081-0.838c0.037-0.151,0.384,0.087,0.526,0.195
					c0.145,0.111,0.332,0.356,0.338,0.438c0.006,0.083,0.906-0.424,0.937-0.971c0.035-0.551,0.336-1.168,0.362-1.312
					c0.032-0.147-0.087-0.345-0.165-0.351c-0.076-0.008,0.136-0.419,0.393-0.413c0.25,0.01,0.857-0.672,1.003-0.94
					c0.145-0.269,0.435-0.488,0.468-0.522c0.035-0.035,0.237-0.671,0.272-0.935c0.035-0.261-0.147-0.674-0.169-0.811
					c-0.021-0.135-0.241-0.449-0.299-0.549c-0.053-0.099-0.109-0.467-0.073-0.535c0.032-0.069,0.26-0.144,0.289-0.203
					c0.022-0.063,0.285-0.34,0.263-0.465c-0.018-0.122,0.162,0.159,0.284,0.263c0.118,0.101,0.247,0.755,0.396,0.827
					c0.147,0.071,0.747-0.693,0.676-1.188c-0.074-0.496,0.172-1.126,0.316-1.184c0.11-0.044,0.392-0.445,0.58-0.729
					c-1.313-3.806-3.501-7.211-6.322-9.969c-0.035,0.003-0.068,0.003-0.099-0.003c-0.221-0.047-0.221-0.047-0.221-0.047
					c-0.367-0.079-0.581-0.473-0.517-0.565c0.02-0.027,0.015-0.092-0.001-0.171c-0.206-0.186-0.418-0.367-0.63-0.546
					c-0.176-0.005-0.358,0-0.466-0.005c-0.221-0.008-0.699-0.167-0.784-0.251c-0.086-0.084-0.377,0.076-0.392,0.235
					c-0.02,0.159-0.522,0.231-0.567,0.354c-0.053,0.123-0.309,0.131-0.359,0.062c-0.054-0.069-0.517,0.166-0.749,0.2
					c-0.233,0.031-0.667,0.22-0.771,0.266c-0.101,0.046-0.349,0.284-0.386,0.387c-0.041,0.102-0.338,0.267-0.434,0.306
					c-0.096,0.035-0.075,0.468,0.044,0.531c0.124,0.06-0.228-0.051-0.381-0.134c-0.159-0.077-0.33,0.184-0.379,0.278
					c-0.05,0.089-0.192-0.057-0.185-0.186c0.004-0.13-0.385-0.233-0.437-0.13c-0.052,0.103-0.323-0.036-0.431-0.092
					c-0.112-0.06-0.597,0.446-0.778,0.623c-0.179,0.183-1.036,0.322-1.195,0.253c-0.159-0.065-0.318,0.384-0.18,0.411
					c0.136,0.027-0.349-0.023-0.615,0.003c-0.269,0.026-1.043,0.336-1.225,0.473c-0.185,0.139-0.334-0.03-0.334-0.135
					c0-0.106-0.295-0.204-0.384-0.233c-0.085-0.03-0.256,0.577-0.411,0.694c-0.156,0.119-0.337-0.475-0.698-0.572
					c-0.362-0.1-0.927-0.446-1.09-0.486c-0.158-0.045-0.481-0.381-0.572-0.478c-0.089-0.098-0.552-0.18-0.702-0.18
					c-0.146,0-0.625,0.275-0.753,0.383c-0.127,0.108-0.324,0.087-0.387,0.125c-0.063,0.039-0.602,0.571-0.814,0.734
					c-0.208,0.166-0.577,0.881-0.693,1.051c-0.122,0.17-0.295,0.2-0.364,0.208c-0.071,0-0.128,0.191-0.128,0.263
					c0,0.068-0.62,0.394-0.687,0.674c-0.065,0.282,0.063,0.928,0.063,1.157c0,0.228,0.228,0.684,0.402,0.692
					c0.168,0.005,0.081,0.389,0.04,0.492c-0.048,0.107,0.107,0.228,0.1,0.318c-0.001,0.09-0.435,0.219-0.569,0.27
					c-0.134,0.049-0.347,0.35-0.376,0.461c-0.023,0.098-0.439,0.166-0.577,0.301c0.036-0.097,0.081-0.228,0.117-0.301
					c0.081-0.15-0.029-0.412-0.092-0.468c-0.067-0.053-0.099-0.801-0.202-0.959c-0.105-0.161-0.365-0.432-0.431-0.485
					c-0.064-0.053,0.045-0.247,0.083-0.332c0.035-0.082-0.35-0.129-0.455-0.07c-0.104,0.061-0.159,0.802-0.208,1.003
					c-0.042,0.2,0.192,0.511,0.257,0.526c0.064,0.017,0.044,0.38-0.088,0.393c-0.138,0.011-0.261,0.544-0.194,0.666
					c0.073,0.122-0.097,0.359-0.176,0.413c-0.081,0.055,0.521,0.022,0.795,0.017c0.272-0.008,0.485,0.116,0.456,0.138
					c-0.024,0.023-0.523,0.096-0.609,0.213c-0.088,0.117-0.427,0.347-0.491,0.435c-0.067,0.09,0.11,0.288,0.253,0.28
					c0.14-0.01,0.306,0.49,0.416,0.586c0.11,0.09,0.07,0.35,0.023,0.422c-0.05,0.068-0.721-0.051-0.973,0.015
					c-0.256,0.063-0.576,0.601-0.598,0.804c-0.022,0.205,0.04,0.785,0.075,0.948c0.032,0.158,0.563,0.258,0.67,0.339
					c0.112,0.078,0.618,0.002,0.726,0.052c0.103,0.05,0.445-0.519,0.516-0.779c0.064-0.263,0.608-0.745,0.725-0.926
					c0.111-0.178,0.696-0.157,0.835-0.25c0.147-0.093,0.068,0.445,0.133,0.736c0.068,0.297,0.63,0.261,0.548-0.018
					c-0.083-0.273,0.056-0.396,0.076-0.295c0.028,0.097,0.565,0.318,0.667,0.475c0.102,0.155,0.071,0.486-0.048,0.482
					c-0.12-0.005-0.124,0.361,0.007,0.402c0.122,0.037,0.29-0.414,0.425-0.48c0.137-0.069,0.248-0.35,0.183-0.371
					c-0.06-0.021,0.116-0.273,0.194-0.19c0.075,0.083-0.29-0.549-0.517-0.779c-0.229-0.231-0.069-0.132,0.359,0.229
					c0,0,0,0,0.295,0.412c0.055,0.073,0.135,0.301,0.183,0.385c0.069,0.121,0.069,0.121,0.069,0.121
					c0.06,0.145,0.113,0.541,0.113,0.647c0,0.109,0.228,0.318,0.37,0.31c0.136-0.011,0.247,0.066,0.219,0.071
					c-0.029,0.007,0.092,0.281,0.231,0.286c0.138,0.007,0.2-0.354,0.06-0.364c-0.142-0.006-0.119-0.527-0.138-0.755
					c-0.017-0.227,0.102-0.413,0.15-0.413c0.049,0-0.007,0.467-0.003,0.574c0.003,0.108,0.061,0.318,0.129,0.469
					c0,0,0,0,0.142,0.112c0.325,0.248,0.325,0.248,0.325,0.248c0.468-0.138,1.088-0.03,1.065,0.063
					c-0.023,0.096,0.344,0.118,0.365-0.034c0.022-0.154,0.041,0.005,0.041,0.11c0,0.102-0.306,0.521-0.355,0.711
					c-0.052,0.191-1.124,0.063-1.585,0.027c-0.464-0.036-1.145,0.122-1.199,0.259c-0.047,0.139-0.771-0.316-1.101-0.457
					c-0.331-0.139-0.589-0.644-0.656-0.706c-0.068-0.067,0.057-0.229,0.023-0.329c-0.032-0.104-0.786-0.121-1.003-0.04
					c-0.22,0.08-1.352,0.2-1.617,0.319c-0.269,0.118-0.673-0.01-0.8-0.031c-0.125-0.022-0.425,0.349-0.575,0.414
					c-0.156,0.067-0.344,0.59-0.43,1.165c0,0,0,0-0.206,0.4c-0.129,0.258-0.129,0.258-0.129,0.258
					c-0.373,0.281-0.787,1.231-0.911,1.422c-0.12,0.188-0.221,1.553-0.221,2.015c0,0.458,0.403,1.431,0.518,1.698
					c0.111,0.27,0.804,0.861,1.037,1.006c0.229,0.136,0.983,0.157,1.23,0.156c0.244,0,0.527-0.237,0.622-0.52c0,0,0,0,0.361,0.038
					c0.168,0.014,0.168,0.014,0.168,0.014c0.009,0.203,0.542,0.366,0.671,0.437c0.132,0.069,0.482,0.016,0.588-0.012
					c0.106-0.034,0.224,0.909,0.147,1.184c-0.078,0.271,0.184,1.228,0.259,1.514c0.079,0.29,0.406,1.076,0.439,1.358
					c0.031,0.284-0.191,1.223-0.23,1.55c-0.037,0.333,0.41,1.252,0.529,1.57c0.116,0.314,0.214,0.997,0.214,1.152
					c0,0.159,0.487,1.107,0.601,1.501C35.056,72.167,36.282,72.262,36.614,72.071z"/>
				<path fill="#CCD3D5" d="M57.781,60.411c0.036,0.067,0.341-0.175,0.526-0.203c0.186-0.028,0.299-0.525,0.156-0.56
					c-0.144-0.041-0.328-0.423-0.433-0.468c-0.104-0.046-0.309,0.164-0.299,0.314c0.007,0.153-0.333,0.212-0.401,0.336
					c-0.063,0.126-0.063,0.217,0.009,0.205C57.408,60.023,57.75,60.342,57.781,60.411z"/>
				<path fill="#CCD3D5" d="M57.405,63.11c0.092-0.037-0.013-0.526-0.203-0.567c-0.194-0.041-0.728,0.645-0.625,1.041
					c0.101,0.394,0.211,0.371,0.27,0.286c0.055-0.083,0.37,0.053,0.462,0.085c0.096,0.032,0.096-0.063,0-0.209
					C57.217,63.601,57.31,63.143,57.405,63.11z"/>
				<path fill="#CCD3D5" d="M56.352,62.629c0.022-0.174,0.058-0.724,0.086-0.83c0.028-0.112-0.297-0.425-0.458-0.48
					c-0.163-0.057-0.68,1.068-1.051,1.266c-0.374,0.201-0.506,0.883-0.41,1.042c0.099,0.156,0.872,0.24,1.007,0.361
					c0.14,0.12,0.289-0.02,0.369-0.041c0.085-0.017,0.057-0.07,0.027-0.09c-0.035-0.021,0.271-0.341,0.315-0.542
					C56.279,63.112,56.331,62.804,56.352,62.629z"/>
				<path fill="#CCD3D5" d="M54.244,64.5c-0.291-0.112-0.636,0.062-0.659,0.173c-0.031,0.112,1.119,0.296,1.5,0.401
					c0.381,0.1,0.618,0.136,0.531,0.071C55.526,65.079,54.533,64.611,54.244,64.5z"/>
				<path fill="#CCD3D5" d="M56.574,57.03c0.091-0.129-0.13-0.732-0.238-0.595c-0.112,0.134-0.032,0.486,0.003,0.609
					C56.375,57.167,56.481,57.157,56.574,57.03z"/>
				<path fill="#CCD3D5" d="M57.267,58.318c0.067-0.155-0.084-0.326-0.333-0.378c-0.247-0.054-0.212,0.694-0.102,0.792
					C56.94,58.824,57.2,58.476,57.267,58.318z"/>
				<path fill="#CCD3D5" d="M58.56,62.95c0.297,0.207,0.958,0.11,0.979-0.292C59.249,62.468,58.533,62.499,58.56,62.95z"/>
				<path fill="#CCD3D5" d="M58.398,53.786c-0.123,0.085-0.187,0.307-0.149,0.396c-0.02-0.001-0.036-0.005-0.054-0.005
					c-0.096,0-0.108,0.393-0.003,0.461c0.102,0.067,0.352-0.306,0.487-0.396c0.13-0.084,0.392-0.142,0.432-0.112
					c0.04,0.028,0.27-0.043,0.514-0.154c0.042-0.019,0.092-0.085,0.141-0.174c-0.056-0.285-0.123-0.567-0.193-0.852
					c-0.124,0.092-0.261,0.189-0.33,0.247C59.113,53.316,58.561,53.675,58.398,53.786z"/>
				<path fill="#CCD3D5" d="M51.61,61.667c0.001,0.003,0.007,0.003,0.007,0.003C51.561,61.633,51.558,61.627,51.61,61.667z"/>
				<path fill="#CCD3D5" d="M53.463,63.393c-0.107-0.244-0.466-0.654-0.791-0.916c0,0,0,0-0.127-0.203
					C52.41,62.05,52.41,62.05,52.41,62.05c-0.121-0.247-0.488-0.438-0.52-0.511c-0.034-0.071-0.148,0.214-0.273,0.131
					c0.064,0.046,0.203,0.145,0.396,0.281c0.345,0.246,1.011,1.919,1.16,2.037C53.323,64.107,53.569,63.637,53.463,63.393z"/>
				<path fill="#CCD3D5" d="M48.158,60.689c-0.092,0.188,0.493,0.592,0.54,0.499c0.049-0.093-0.078-0.556-0.18-0.658
					C48.415,60.428,48.254,60.501,48.158,60.689z"/>
				<path fill="#CCD3D5" d="M40.401,69.625c0.024,0.196,0.424,0.355,0.544,0.324c0.117-0.035,0.444-0.635,0.49-0.808
					c0.045-0.177,0.08-0.545,0.08-0.636c0-0.087,0.054-0.287,0.103-0.31c0.042-0.022,0.114-0.228,0.164-0.454
					c0.042-0.229-0.249-1.282-0.252-1.468c-0.007-0.188-0.216,0.096-0.27,0.282c-0.058,0.188-0.58,0.57-0.696,0.729
					c-0.117,0.157-0.246,0.698-0.2,0.792c0.041,0.091-0.046,0.459-0.099,0.563C40.21,68.74,40.381,69.424,40.401,69.625z"/>
				<path fill="#CCD3D5" d="M21.469,76.924c0.117,0,0.232,0,0.355,0C21.884,76.544,21.449,76.607,21.469,76.924z"/>
				<path fill="#CCD3D5" d="M30.882,37.189c-0.15,0.02-0.535-0.057-0.599-0.128C30.215,36.99,29.645,36.93,29.476,37
					c-0.164,0.069-0.051-0.405,0.18-0.457c0.23-0.05,0.033-0.376-0.209-0.377c-0.247-0.002-0.852-0.09-0.995-0.059
					c-0.143,0.03-0.418-0.101-0.524-0.114c-0.101-0.014-0.831,0.217-1.172,0.2c-0.343-0.015-1.188,0.019-1.369,0.071
					c-0.185,0.049-0.319,0.407-0.291,0.532c0.023,0.128-0.818,0.124-1.082,0.13c-0.269,0.003-1.686,0.305-2.054,0.509
					c-0.368,0.199-0.66,0.722-0.535,0.731c0.123,0.011-0.208,0.305-0.406,0.373c-0.198,0.067-0.673,0.1-0.785,0.213
					c-0.109,0.108,0.121,0.186,0.167,0.261c0.042,0.074,0.175-0.067,0.3,0.008c0.123,0.07,0.537,0.102,0.647,0.145
					c0.113,0.045-0.352,0.132-0.568,0.146c-0.217,0.016-0.166,0.44,0.009,0.499c0.178,0.06,0.63,0.122,0.677,0.049
					c0.044-0.074,0.538,0.078,0.764,0.106c0.216,0.023,0.387,0.579,0.456,0.699c0.069,0.119,0.083,0.545,0.069,0.666
					c-0.019,0.124,0.39,0.348,0.466,0.268c0.07-0.077,0.051,0.193-0.114,0.181c-0.164-0.016-0.059,0.454,0.144,0.522
					c0.203,0.066,0.064,0.357-0.052,0.444c-0.114,0.087-0.049,0.366-0.17,0.466c-0.12,0.097,0.42,1.036,0.415,1.516
					c0,0.483,0.302,0.875,0.416,0.875s0.512,0.099,0.562,0.202c0.054,0.1,0.246-0.075,0.319-0.155
					c0.075-0.076,0.238-0.307,0.357-0.509c0.122-0.208,0.395-1.173,0.432-1.275c0.036-0.105,0.491-0.039,0.594-0.092
					c0.1-0.052,0.395-0.288,0.482-0.354c0.084-0.073,0.73-0.346,0.909-0.475c0.176-0.126,0.47-0.675,0.606-0.792
					c0.136-0.117-0.071-0.082-0.243-0.194c-0.171-0.114-0.098-0.253-0.047-0.304c0.052-0.056,0.571,0.087,0.753,0.155
					c0.181,0.071,0.523-0.178,0.393-0.272c-0.134-0.095-0.063-0.094,0-0.054c0.064,0.041,0.13-0.318,0.063-0.382
					c-0.071-0.07,0.525-0.505,0.42-0.916c-0.104-0.412,0.165-0.834,0.324-0.838c0.161-0.006,0.112-0.464-0.08-0.508
					c-0.191-0.043-0.011-0.085,0.062-0.151c0.071-0.063,0.16-0.473,0.121-0.555c-0.042-0.077,0.291-0.167,0.349-0.26
					c0.062-0.096,0.447-0.278,0.582-0.31C30.952,37.536,31.029,37.172,30.882,37.189z"/>
				<path fill="#CCD3D5" d="M34.226,37.528c-0.185-0.063-0.555,0.14-0.508,0.253c0.048,0.116-0.303-0.146-0.545-0.02
					c-0.247,0.126-0.313,0.555-0.201,0.61c0.113,0.057,0.191,0.397,0.198,0.46c0.003,0.068,0.472,0.021,0.593-0.079
					c0.119-0.099,0.105,0.348-0.013,0.467c-0.121,0.119,0.042,0.359,0.173,0.379c0.131,0.018,0.308,0.327,0.444,0.325
					c0.137-0.003,0.366-0.521,0.418-0.716s0.501-0.042,0.707,0.021c0.208,0.062,0.283-0.715,0.059-0.833
					c-0.221-0.117-0.499-0.059-0.593-0.146c-0.092-0.091-0.251-0.173-0.356-0.188C34.504,38.048,34.405,37.586,34.226,37.528z"/>
				<path fill="#CCD3D5" d="M36.021,37.897c0.358,0.052,0.766-0.247,0.854-0.332c0.092-0.081-1.004-0.306-1.419-0.317
					c-0.417-0.014-0.749,0.041-0.747,0.126C34.716,37.456,35.656,37.845,36.021,37.897z"/>
				<path fill="#CCD3D5" d="M29.406,47.698c-0.092-0.041-0.147,0.318-0.124,0.455c0.023,0.135,0.353,0.123,0.497,0.098
					c0.144-0.022,0.255-0.137,0.249-0.256c-0.006-0.118-0.209-0.65-0.292-0.65C29.656,47.345,29.504,47.737,29.406,47.698z"/>
				<path fill="#CCD3D5" d="M30.481,43.53c-0.075-0.133-0.643-0.115-0.781-0.126c-0.137-0.007-0.566-0.147-0.647-0.239
					c-0.078-0.088-0.139,0.35-0.269,0.409c-0.131,0.055,0.063,0.143,0.117,0.095c0.052-0.046-0.002,0.224-0.061,0.319
					c-0.059,0.094,0.375,0.159,0.427,0.301c0.048,0.145,0.228,0.234,0.399,0.205c0.171-0.024,0.516-0.205,0.637-0.216
					C30.424,44.266,30.556,43.663,30.481,43.53z"/>
				<path fill="#CCD3D5" d="M42.416,40.275c0.191-0.198,0.999-0.461,1.09-0.663c0.092-0.202-0.057-0.367-0.139-0.367
					c-0.081,0-0.179,0.101-0.199,0.134c-0.02,0.031-0.94,0.252-1.225,0.387c-0.283,0.135-0.61,0.346-0.732,0.467
					c-0.118,0.122-0.315,1.034-0.38,1.136c-0.069,0.105,0.306,0.477,0.471,0.579c0.169,0.103,0.397,0.05,0.458,0.03
					c0.067-0.019-0.082-0.659-0.168-0.88C41.502,40.875,42.222,40.472,42.416,40.275z"/>
				<path fill="#CCD3D5" d="M41.427,37.894c0.305,0.301,0.47-0.132,0.806-0.091C42.228,37.189,41.4,37.401,41.427,37.894z"/>
				<path fill="#CCD3D5" d="M47.327,38.008c-0.008,0.113,0.841,0.204,1.088,0.159c0.248-0.043-0.052-0.429-0.414-0.405
					C47.64,37.785,47.338,37.896,47.327,38.008z"/>
				<path fill="#CCD3D5" d="M16.606,44.302c-0.09,0.082-0.012,0.497,0.157,0.51c0.171,0.012,0.441-0.625,0.65-0.502
					c0.205,0.13,0.349,0.18,0.312,0.112c-0.033-0.066-0.627-0.326-0.699-0.375C16.953,44.003,16.695,44.219,16.606,44.302z"/>
				<path fill="#CCD3D5" d="M18.776,58.39c0,0.068,0.369,0.06,0.428-0.056c0.059-0.112,0.028-0.205-0.071-0.205
					C19.035,58.129,18.776,58.318,18.776,58.39z"/>
				<path fill="#CCD3D5" d="M17.129,57.781c0.177-0.033,0.093,0.252,0.133,0.355c0.043,0.104,0.47,0.185,0.554,0.255
					c0.087,0.066,0.303-0.131,0.474-0.109c0.168,0.022-0.058-0.587-0.339-0.569c-0.287,0.018-0.512-0.259-0.579-0.293
					c-0.066-0.029-0.397-0.228-0.492-0.306c-0.092-0.076-0.818-0.14-1.066-0.14c-0.243,0-0.517,0.25-0.552,0.331
					c-0.041,0.085,0.39,0.141,0.512,0.076c0.126-0.064,0.699,0.071,0.813,0.21C16.706,57.729,16.95,57.815,17.129,57.781z"/>
				<path fill="#CCD3D5" d="M16.353,58.39c0,0.068,0.375,0.025,0.462,0.029c0.092,0.001,0.089-0.059-0.003-0.137
					C16.715,58.207,16.353,58.318,16.353,58.39z"/>
				<path fill="#CCD3D5" d="M16.617,56.469c-0.096-0.041-0.172,0.111-0.172,0.186c0,0.07,0.049,0.13,0.117,0.13
					C16.627,56.784,16.715,56.506,16.617,56.469z"/>
				<path fill="#CCD3D5" d="M17.403,56.527c-0.033-0.07-0.195-0.13-0.241-0.13c-0.051,0-0.084,0.124-0.075,0.271
					C17.094,56.823,17.435,56.597,17.403,56.527z"/>
				<path fill="#CCD3D5" d="M17.963,57.396c0.152-0.074,0.17-0.254,0.083-0.246c-0.091,0.012-0.257-0.26-0.353-0.298
					c-0.096-0.037-0.177,0.163-0.177,0.248c0,0.092,0.056,0.149,0.121,0.133C17.705,57.216,17.813,57.465,17.963,57.396z"/>
				<path fill="#CCD3D5" d="M59.682,63.262c-0.076,0.039-0.453,0.085-0.503,0.012c-0.049-0.073-0.124,0.151-0.206,0.188
					c-0.08,0.036-0.036,0.233,0.083,0.172c0.085-0.042,0.442,0.156,0.732,0.338c0.057-0.285,0.109-0.574,0.156-0.868
					C59.841,63.161,59.73,63.235,59.682,63.262z"/>
			</g>
			<path fill="#CDE4F3" d="M18.893,39.587c-0.025-0.027-0.132,0.052-0.084,0.101C18.831,39.717,18.938,39.64,18.893,39.587z"/>
			<path fill="#CDE4F3" d="M21.739,48.063c-0.021-0.03-0.13,0.051-0.09,0.099C21.677,48.193,21.785,48.114,21.739,48.063z"/>
			<g>
				<path fill="#E5E7EB" d="M25.072,66.213c0.088-0.098,0.41-0.505,0.417-0.596c0.005-0.087,0.053-0.319,0.104-0.513
					c0,0,0,0,0-0.226c0.005-0.36,0.005-0.36,0.005-0.36c-0.103-0.281-0.414-0.627-0.49-0.551c-0.082,0.075-0.439-0.248-0.62-0.318
					c-0.182-0.065-0.636-0.122-0.75-0.122c-0.115,0-0.513-0.326-0.69-0.382c-0.175-0.053-0.63-0.142-0.714-0.195
					c-0.081-0.052-0.193-0.728-0.558-0.948c-0.364-0.222-1.007-0.736-1.08-0.925c-0.069-0.188-0.771-0.587-0.99-0.705
					c-0.214-0.121-0.542-0.146-0.58-0.104c-0.045,0.041-0.318-0.365-0.454-0.483c-0.141-0.113-0.561-0.209-0.582-0.106
					c-0.018,0.106-0.295,0.053-0.364-0.038c-0.062-0.088-0.28,0.036-0.382,0.069c-0.101,0.031-0.45,0.563-0.609,0.694
					c-0.164,0.126-0.354-0.119-0.46-0.164c-0.104-0.046-0.506,0.079-0.617,0.155c-0.109,0.079-0.364-0.564-0.305-0.86
					c0.059-0.294-0.265-0.884-0.515-0.898c-0.252-0.014-0.329-0.631-0.278-0.859c0.048-0.228-0.453-0.371-0.576-0.383
					c-0.128-0.021-0.439,0.301-0.492,0.454c-0.056,0.154-1.192-0.21-1.057-0.891c0.133-0.68,0.674-1.383,0.806-1.47
					c0.134-0.081,0.866-0.125,1.026-0.034c0.159,0.096,0.308,0,0.335-0.041c0.025-0.041,0.62,0.008,0.8,0.08
					c0.18,0.074,0.432,0.763,0.616,0.846c0.187,0.085,0.252-0.445,0.282-0.573c0.029-0.13-0.09-0.458-0.132-0.549
					c-0.046-0.092,0.293-0.925,0.573-1.067c0.275-0.144,0.573-0.608,0.549-0.689c-0.026-0.083,0.221-0.146,0.287-0.18
					c0.069-0.035-0.011-0.71,0.102-0.856c0.109-0.146,0.632-0.456,0.8-0.523c0.162-0.07,0.287-0.497,0.229-0.571
					c-0.062-0.078,0.426-0.49,0.678-0.572c0.253-0.077,0.472,0.143,0.41,0.179c0.049-0.025,0.4-0.207,0.55-0.305
					c0.174-0.115,0-0.429-0.112-0.522c-0.109-0.091-0.042-0.46,0.091-0.492c0.134-0.032,0.25-0.35,0.217-0.419
					c-0.037-0.068,0.558,0.056,0.785-0.112c0.221-0.166,0.065,0.401-0.1,0.634c-0.166,0.226,0.121,0.444,0.227,0.401
					c0.104-0.046,0.219,0.122,0.24,0.187c0.022,0.064,0.25-0.067,0.398-0.003c0.149,0.067,0.237-0.204,0.251-0.329
					c0.011-0.124-0.36-0.383-0.417-0.532c-0.058-0.151-0.082-1.018-0.09-1.197c-0.007-0.179-0.245-0.468-0.327-0.415
					c-0.075,0.047-0.232-0.463-0.354-0.574c-0.125-0.113-0.154-0.357-0.149-0.442c0.006-0.082-0.421-0.528-0.523-0.735
					c-0.103-0.203-0.246-0.162-0.254-0.07c-0.011,0.098-0.306,0.11-0.429,0.098c-0.122-0.012-0.223-0.481-0.223-0.66
					c0-0.177-0.551-0.208-0.64-0.353c-0.089-0.141-0.449-0.075-0.507-0.173c-0.057-0.099-0.374-0.191-0.437-0.152
					c-0.064,0.034-0.032,1.311-0.091,1.655c-0.063,0.345-0.354,0.648-0.461,0.64c-0.106-0.007-0.042,0.248,0.031,0.224
					c0.075-0.023-0.208,0.377-0.246,0.64c-0.037,0.259-0.303-0.014-0.344-0.251c-0.044-0.237-0.305-0.561-0.351-0.478
					c-0.051,0.081-0.231-0.097-0.309-0.046c-0.077,0.053-0.566-0.286-0.767-0.396c-0.196-0.104-0.31-0.712-0.421-0.766
					c-0.115-0.052-0.017-0.128-0.021-0.22c-0.003-0.091,0.384-0.443,0.501-0.584c0.114-0.139,0.542-0.694,0.708-0.813
					c0.17-0.117,0.3-0.434,0.271-0.494c-0.029-0.055,0.721-0.291,0.925-0.359c0.203-0.07,0.382-0.639,0.407-0.801
					c0.025-0.16-0.129-0.47-0.22-0.51c-0.095-0.038,0.281-0.056,0.406,0.009c0.129,0.061,0.512-0.115,0.668-0.033
					c0.15,0.08,0.46,0.262,0.682,0.404c0,0,0,0-0.048,0.414c-0.093,0.705-0.093,0.705-0.093,0.705
					c-0.59,0.245-0.757,0.669-0.552,0.661c0.208-0.01,1.151,0.41,1.416,0.6c0.268,0.19,0.351-0.274,0.428-0.434
					c0.082-0.154,0.056-0.607-0.008-0.693c-0.064-0.091,0.309-0.062,0.412,0.041c0.106,0.1,0.227-0.104,0.311-0.141
					c0.079-0.036,0.12-0.422,0.164-0.5c0.042-0.078-0.181-0.157-0.185-0.256c-0.009-0.097-0.431-0.283-0.567-0.348
					c-0.143-0.065-0.176-0.357-0.106-0.408c0.068-0.051-0.046-0.422-0.113-0.548c-0.066-0.123-0.511-0.223-0.658-0.223
					c-0.148,0-0.301-0.344-0.383-0.392c-0.089-0.05-0.655-0.113-0.797-0.07c-0.141,0.041-0.396-0.403-0.633-0.269
					c-0.239,0.136-0.485-0.159-0.591-0.217c-0.109-0.061-0.664,0.539-0.661,0.958c0.007,0.418,0.216,0.823,0.305,0.836
					c0.088,0.014-0.019,0.392-0.117,0.501c-0.096,0.107-0.331-0.116-0.241-0.213c0.087-0.091-0.241-0.531-0.355-0.711
					c-0.081-0.13-0.37-0.242-0.567-0.32c-0.115,0.122-0.224,0.248-0.336,0.377c0.042,0.153,0.093,0.352,0.044,0.5
					c-0.082,0.258-0.299,0.296-0.311,0.187c-0.004-0.049-0.112-0.088-0.24-0.104c-3.111,3.729-5.18,8.355-5.774,13.424
					c0.124,0.139,0.265,0.31,0.3,0.428c0.074,0.224,0.464,0.371,0.54,0.421c0.07,0.042,0.098-0.433,0.045-0.557
					c-0.051-0.124,0.094-0.199,0.092-0.106c-0.001,0.092,0.365,0.512,0.49,0.663c0.121,0.152,0.25,1.129,0.367,1.339
					c0.116,0.212,1.249,0.648,1.612,0.723c0.362,0.077,0.822,0.484,0.894,0.602c0.069,0.118,0.556,0.177,0.658,0.225
					c0.104,0.049,0.352,0.376,0.456,0.441c0.102,0.07,0.183,0.267,0.183,0.316c0,0.052,0.639,0.293,0.795,0.465
					c0.154,0.17,0.411,0.125,0.458,0.052c0.048-0.068,0.175,0.341,0.242,0.48c0.064,0.145,0.078,0.493,0.029,0.55
					c-0.05,0.053-0.142,0.694-0.248,0.823c-0.111,0.129-0.336,1.063-0.289,1.247c0.05,0.186,0.35,0.565,0.48,0.623
					c0.126,0.054,0.073,0.255-0.027,0.269c-0.103,0.015-0.055,0.906,0.187,1.037c0.24,0.131,0.439,0.527,0.405,0.593
					c-0.038,0.07,0.422,0.542,0.602,0.7c0.179,0.163,0.554,0.937,0.632,1.186c0.076,0.255,0.032,0.667,0.006,0.768
					c-0.023,0.094,0.085,0.311,0.104,0.397c0.015,0.09-0.156,0.845-0.093,1.146c0.065,0.305-0.354,1.254-0.343,1.725
					c0.011,0.471,0.221,1.086,0.309,1.038c0.085-0.047,0.116,0.43-0.029,0.484c-0.145,0.059-0.312,0.432-0.229,0.451
					c0.08,0.021-0.007,0.39,0.016,0.535c0.02,0.151,0.146,1.132,0.172,1.372c0.03,0.246,0.375,0.836,0.448,1.038
					c0.074,0.202,0.149,0.585,0.179,0.641c0.024,0.061,0.063,0.119,0.065,0.122c0.004,0.004,0.286,0.106,0.367,0.166
					c0.086,0.063,0.634,0.022,0.815-0.012c0.178-0.038,0.011-0.202-0.07-0.291c-0.079-0.091-0.15-0.523-0.244-0.568
					c-0.094-0.042-0.133-0.595-0.051-0.715c0.082-0.125,0.412-0.318,0.447-0.423c0.035-0.102,0.046-0.586-0.043-0.651
					c-0.087-0.066,0.025-0.649-0.039-0.94c-0.07-0.288,0.5-0.552,0.535-0.781c0.033-0.232,0.652-0.479,0.791-0.594
					c0.143-0.115,0.26-0.774,0.196-0.917c-0.067-0.141,0.225-0.257,0.361-0.257c0.127,0,0.277-0.093,0.327-0.093
					c0.05-0.005,0.208-0.294,0.29-0.362c0.085-0.064,0.259-0.763,0.412-0.877c0.157-0.115,0.281-0.534,0.281-0.656
					c0-0.125,0.235-0.491,0.313-0.602c0.077-0.112,0.652-0.375,0.756-0.419c0.102-0.041,0.258-0.965,0.301-1.299
					c0.037-0.333,0.208-0.779,0.222-0.887c0.01-0.109,0.197-0.201,0.229-0.235C24.846,66.731,24.983,66.309,25.072,66.213z"/>
				<line fill="#E5E7EB" x1="19.796" y1="50.936" x2="19.795" y2="50.938"/>
				<path fill="#E5E7EB" d="M19.449,38.746c0.121-0.149,0.825-0.372,0.993-0.472c0.164-0.102,0.532-0.454,0.674-0.495
					c0.141-0.041,0.346-0.37,0.314-0.438c-0.03-0.064,0.476-0.373,0.67-0.452c0.191-0.083,0.293-0.311,0.218-0.319
					c-0.045-0.004-1.12,0.557-2.1,1.114c-1.122,0.761-2.173,1.611-3.161,2.537c0.308-0.022,0.782-0.079,0.985-0.112
					c0.306-0.054,0.817-0.139,0.85-0.225c0.027-0.07,0.029-0.279-0.027-0.354c0.047,0.001,0.105,0.007,0.15,0.007
					C19.129,39.537,19.325,38.896,19.449,38.746z"/>
				<path fill="#E5E7EB" d="M45.483,41.456c-0.007,0.015-0.018,0.025-0.021,0.038c-0.05,0.089-0.192-0.057-0.185-0.186
					c0.004-0.13-0.385-0.233-0.437-0.13c-0.052,0.103-0.323-0.036-0.431-0.092c-0.112-0.06-0.597,0.446-0.778,0.623
					c-0.179,0.183-1.036,0.322-1.195,0.253c-0.159-0.065-0.318,0.384-0.18,0.411c0.136,0.027-0.349-0.023-0.615,0.003
					c-0.269,0.026-1.043,0.336-1.225,0.473c-0.185,0.139-0.334-0.03-0.334-0.135c0-0.106-0.295-0.204-0.384-0.233
					c-0.085-0.03-0.256,0.577-0.411,0.694c-0.156,0.119-0.337-0.475-0.698-0.572c-0.362-0.1-0.927-0.446-1.09-0.486
					c-0.158-0.045-0.481-0.381-0.572-0.478c-0.089-0.098-0.552-0.18-0.702-0.18c-0.146,0-0.625,0.275-0.753,0.383
					c-0.127,0.108-0.324,0.087-0.387,0.125c-0.063,0.039-0.602,0.571-0.814,0.734c-0.208,0.166-0.577,0.881-0.693,1.051
					c-0.122,0.17-0.295,0.2-0.364,0.208c-0.071,0-0.128,0.191-0.128,0.263c0,0.068-0.62,0.394-0.687,0.674
					c-0.065,0.282,0.063,0.928,0.063,1.157c0,0.228,0.228,0.684,0.402,0.692c0.168,0.005,0.081,0.389,0.04,0.492
					c-0.048,0.107,0.107,0.228,0.1,0.318c-0.001,0.09-0.435,0.219-0.569,0.27c-0.134,0.049-0.347,0.35-0.376,0.461
					c-0.023,0.098-0.439,0.166-0.577,0.301c0.036-0.097,0.081-0.228,0.117-0.301c0.081-0.15-0.029-0.412-0.092-0.468
					c-0.067-0.053-0.099-0.801-0.202-0.959c-0.105-0.161-0.365-0.432-0.431-0.485c-0.064-0.053,0.045-0.247,0.083-0.332
					c0.035-0.082-0.35-0.129-0.455-0.07c-0.104,0.061-0.159,0.802-0.208,1.003c-0.042,0.2,0.192,0.511,0.257,0.526
					c0.064,0.017,0.044,0.38-0.088,0.393c-0.138,0.011-0.261,0.544-0.194,0.666c0.073,0.122-0.097,0.359-0.176,0.413
					c-0.081,0.055,0.521,0.022,0.795,0.017c0.272-0.008,0.485,0.116,0.456,0.138c-0.024,0.023-0.523,0.096-0.609,0.213
					c-0.088,0.117-0.427,0.347-0.491,0.435c-0.067,0.09,0.11,0.288,0.253,0.28c0.14-0.01,0.306,0.49,0.416,0.586
					c0.11,0.09,0.07,0.35,0.023,0.422c-0.05,0.068-0.721-0.051-0.973,0.015c-0.256,0.063-0.576,0.601-0.598,0.804
					c-0.022,0.205,0.04,0.785,0.075,0.948c0.032,0.158,0.563,0.258,0.67,0.339c0.112,0.078,0.618,0.002,0.726,0.052
					c0.103,0.05,0.445-0.519,0.516-0.779c0.064-0.263,0.608-0.745,0.725-0.926c0.111-0.178,0.696-0.157,0.835-0.25
					c0.147-0.093,0.068,0.445,0.133,0.736c0.068,0.297,0.63,0.261,0.548-0.018c-0.083-0.273,0.056-0.396,0.076-0.295
					c0.028,0.097,0.565,0.318,0.667,0.475c0.102,0.155,0.071,0.486-0.048,0.482c-0.12-0.005-0.124,0.361,0.007,0.402
					c0.122,0.037,0.29-0.414,0.425-0.48c0.137-0.069,0.248-0.35,0.183-0.371c-0.06-0.021,0.116-0.273,0.194-0.19
					c0.075,0.083-0.29-0.549-0.517-0.779c-0.229-0.231-0.069-0.132,0.359,0.229c0,0,0,0,0.295,0.412
					c0.055,0.073,0.135,0.301,0.183,0.385c0.069,0.121,0.069,0.121,0.069,0.121c0.06,0.145,0.113,0.541,0.113,0.647
					c0,0.109,0.228,0.318,0.37,0.31c0.136-0.011,0.247,0.066,0.219,0.071c-0.029,0.007,0.092,0.281,0.231,0.286
					c0.138,0.007,0.2-0.354,0.06-0.364c-0.142-0.006-0.119-0.527-0.138-0.755c-0.017-0.227,0.102-0.413,0.15-0.413
					c0.049,0-0.007,0.467-0.003,0.574c0.003,0.108,0.061,0.318,0.129,0.469c0,0,0,0,0.142,0.112
					c0.325,0.248,0.325,0.248,0.325,0.248c0.468-0.138,1.088-0.03,1.065,0.063c-0.023,0.096,0.344,0.118,0.365-0.034
					c0.022-0.154,0.041,0.005,0.041,0.11c0,0.102-0.306,0.521-0.355,0.711c-0.052,0.191-1.124,0.063-1.585,0.027
					c-0.464-0.036-1.145,0.122-1.199,0.259c-0.047,0.139-0.771-0.316-1.101-0.457c-0.331-0.139-0.589-0.644-0.656-0.706
					c-0.068-0.067,0.057-0.229,0.023-0.329c-0.032-0.104-0.786-0.121-1.003-0.04c-0.22,0.08-1.352,0.2-1.617,0.319
					c-0.269,0.118-0.673-0.01-0.8-0.031c-0.125-0.022-0.425,0.349-0.575,0.414c-0.156,0.067-0.344,0.59-0.43,1.165
					c0,0,0,0-0.206,0.4c-0.129,0.258-0.129,0.258-0.129,0.258c-0.373,0.281-0.787,1.231-0.911,1.422
					c-0.12,0.188-0.221,1.553-0.221,2.015c0,0.458,0.403,1.431,0.518,1.698c0.111,0.27,0.804,0.861,1.037,1.006
					c0.229,0.136,0.983,0.157,1.23,0.156c0.244,0,0.527-0.237,0.622-0.52c0,0,0,0,0.361,0.038c0.168,0.014,0.168,0.014,0.168,0.014
					c0.009,0.203,0.542,0.366,0.671,0.437c0.132,0.069,0.482,0.016,0.588-0.012c0.106-0.034,0.224,0.909,0.147,1.184
					c-0.078,0.271,0.184,1.228,0.259,1.514c0.079,0.29,0.406,1.076,0.439,1.358c0.031,0.284-0.191,1.223-0.23,1.55
					c-0.037,0.333,0.41,1.252,0.529,1.57c0.116,0.314,0.214,0.997,0.214,1.152c0,0.159,0.487,1.107,0.601,1.501
					c0.109,0.394,1.336,0.488,1.667,0.298c0.327-0.197,0.885-1.023,1.07-1.195c0.182-0.172,0.315-0.799,0.356-0.936
					c0.036-0.136,0.315-0.354,0.418-0.388c0.107-0.03,0.435-1.413,0.729-1.716c0.296-0.302,0.637-1.766,0.6-2.292
					c-0.037-0.524,0.188-1.531,0.257-1.771c0.071-0.24,0.438-0.67,0.551-0.756c0.111-0.092,0.818-1.136,1.046-1.509
					c0.227-0.375,0.44-1.199,0.398-1.39c-0.042-0.193-0.535-0.327-0.626-0.234c-0.09,0.096-0.553,0.174-0.7,0.174
					c-0.15,0-0.49-0.791-0.7-0.955c-0.209-0.162-0.398-1.07-0.522-1.241c-0.119-0.172-0.46-0.606-0.563-0.707
					c-0.106-0.1-0.125-0.578-0.15-0.712c-0.023-0.131,0.204,0.086,0.245,0.276c0.039,0.191,0.582,0.965,0.751,1.227
					c0.169,0.261,0.611,1.092,0.724,1.347c0.117,0.261,1.101,0.131,1.42-0.02c0.32-0.15,0.722-0.409,0.735-0.499
					c0.018-0.086,0.524-0.322,0.667-0.437c0.142-0.113,0.27-0.706,0.359-0.801c0.093-0.098-0.071-0.663-0.179-0.833
					c-0.106-0.168-0.619-0.304-0.72-0.235c-0.107,0.067-0.327-0.38-0.409-0.543c-0.075-0.166-0.466-0.365-0.507-0.479
					c-0.043-0.112,0.102-0.287,0.166-0.327c0.061-0.041,0.782,0.467,0.993,0.722c0.207,0.251,0.444,0.715,0.484,0.795
					c0.036,0.08,0.605,0.123,0.733,0.025c0.129-0.092,0.275-0.067,0.325,0.055c0,0,0,0,0.18-0.03c0.627-0.1,0.627-0.1,0.627-0.1
					c0.29,0.322,0.379,0.599,0.373,0.664c-0.007,0.06,0.182,0.322,0.302,0.348c0.121,0.032,0.209,0.44,0.245,0.539
					c0.04,0.104,0.393,0.716,0.467,0.974c0.074,0.261,0.377,0.761,0.45,0.895c0.074,0.136,0.134,0.525,0.134,0.634
					c0,0.104,0.229,0.315,0.37,0.305c0.141-0.01,0.428-0.907,0.496-1.238c0.064-0.334,0.298-0.609,0.36-0.609
					c0.067,0,0.12-0.188,0.12-0.258s0.361-0.063,0.392-0.153s0.139-0.686,0.268-0.772c0.132-0.091,0.589-0.393,0.752-0.447
					c0.05-0.019,0.125,0.008,0.21,0.053c0.013-0.353,0.023-0.707,0.023-1.063C50.337,50.859,48.531,45.678,45.483,41.456z"/>
				<path fill="#E5E7EB" d="M48.698,61.188c0.049-0.093-0.078-0.556-0.18-0.658c-0.103-0.103-0.264-0.029-0.36,0.159
					C48.066,60.877,48.651,61.281,48.698,61.188z"/>
				<path fill="#E5E7EB" d="M40.401,69.625c0.024,0.196,0.424,0.355,0.544,0.324c0.117-0.035,0.444-0.635,0.49-0.808
					c0.045-0.177,0.08-0.545,0.08-0.636c0-0.087,0.054-0.287,0.103-0.31c0.042-0.022,0.114-0.228,0.164-0.454
					c0.042-0.229-0.249-1.282-0.252-1.468c-0.007-0.188-0.216,0.096-0.27,0.282c-0.058,0.188-0.58,0.57-0.696,0.729
					c-0.117,0.157-0.246,0.698-0.2,0.792c0.041,0.091-0.046,0.459-0.099,0.563C40.21,68.74,40.381,69.424,40.401,69.625z"/>
				<path fill="#E5E7EB" d="M21.469,76.924c0.117,0,0.232,0,0.355,0C21.884,76.544,21.449,76.607,21.469,76.924z"/>
				<path fill="#E5E7EB" d="M24.015,36.927c-0.269,0.003-1.686,0.305-2.054,0.509c-0.368,0.199-0.66,0.722-0.535,0.731
					c0.123,0.011-0.208,0.305-0.406,0.373c-0.198,0.067-0.673,0.1-0.785,0.213c-0.109,0.108,0.121,0.186,0.167,0.261
					c0.042,0.074,0.175-0.067,0.3,0.008c0.123,0.07,0.537,0.102,0.647,0.145c0.113,0.045-0.352,0.132-0.568,0.146
					c-0.217,0.016-0.166,0.44,0.009,0.499c0.178,0.06,0.63,0.122,0.677,0.049c0.044-0.074,0.538,0.078,0.764,0.106
					c0.216,0.023,0.387,0.579,0.456,0.699c0.069,0.119,0.083,0.545,0.069,0.666c-0.019,0.124,0.39,0.348,0.466,0.268
					c0.07-0.077,0.051,0.193-0.114,0.181c-0.164-0.016-0.059,0.454,0.144,0.522c0.203,0.066,0.064,0.357-0.052,0.444
					c-0.114,0.087-0.049,0.366-0.17,0.466c-0.12,0.097,0.42,1.036,0.415,1.516c0,0.483,0.302,0.875,0.416,0.875
					s0.512,0.099,0.562,0.202c0.054,0.1,0.246-0.075,0.319-0.155c0.075-0.076,0.238-0.307,0.357-0.509
					c0.122-0.208,0.395-1.173,0.432-1.275c0.036-0.105,0.491-0.039,0.594-0.092c0.1-0.052,0.395-0.288,0.482-0.354
					c0.084-0.073,0.73-0.346,0.909-0.475c0.176-0.126,0.47-0.675,0.606-0.792c0.136-0.117-0.071-0.082-0.243-0.194
					c-0.171-0.114-0.098-0.253-0.047-0.304c0.052-0.056,0.571,0.087,0.753,0.155c0.181,0.071,0.523-0.178,0.393-0.272
					c-0.134-0.095-0.063-0.094,0-0.054c0.064,0.041,0.13-0.318,0.063-0.382c-0.071-0.07,0.525-0.505,0.42-0.916
					c-0.104-0.412,0.165-0.834,0.324-0.838c0.161-0.006,0.112-0.464-0.08-0.508c-0.191-0.043-0.011-0.085,0.062-0.151
					c0.071-0.063,0.16-0.473,0.121-0.555c-0.042-0.077,0.291-0.167,0.349-0.26c0.062-0.096,0.447-0.278,0.582-0.31
					c0.135-0.029,0.212-0.394,0.065-0.376c-0.15,0.02-0.535-0.057-0.599-0.128C30.215,36.99,29.645,36.93,29.476,37
					c-0.164,0.069-0.051-0.405,0.18-0.457c0.23-0.05,0.033-0.376-0.209-0.377c-0.247-0.002-0.852-0.09-0.995-0.059
					c-0.143,0.03-0.418-0.101-0.524-0.114c-0.101-0.014-0.831,0.217-1.172,0.2c-0.343-0.015-1.188,0.019-1.369,0.071
					c-0.185,0.049-0.319,0.407-0.291,0.532C25.119,36.925,24.278,36.921,24.015,36.927z"/>
				<path fill="#E5E7EB" d="M33.924,39.599c0.131,0.018,0.308,0.327,0.444,0.325c0.137-0.003,0.366-0.521,0.418-0.716
					s0.501-0.042,0.707,0.021c0.208,0.062,0.283-0.715,0.059-0.833c-0.221-0.117-0.499-0.059-0.593-0.146
					c-0.092-0.091-0.251-0.173-0.356-0.188c-0.098-0.015-0.197-0.477-0.377-0.534c-0.185-0.063-0.555,0.14-0.508,0.253
					c0.048,0.116-0.303-0.146-0.545-0.02c-0.247,0.126-0.313,0.555-0.201,0.61c0.113,0.057,0.191,0.397,0.198,0.46
					c0.003,0.068,0.472,0.021,0.593-0.079c0.119-0.099,0.105,0.348-0.013,0.467C33.63,39.339,33.793,39.579,33.924,39.599z"/>
				<path fill="#E5E7EB" d="M36.875,37.565c0.092-0.081-1.004-0.306-1.419-0.317c-0.417-0.014-0.749,0.041-0.747,0.126
					c0.007,0.082,0.947,0.471,1.312,0.523C36.379,37.949,36.787,37.65,36.875,37.565z"/>
				<path fill="#E5E7EB" d="M29.406,47.698c-0.092-0.041-0.147,0.318-0.124,0.455c0.023,0.135,0.353,0.123,0.497,0.098
					c0.144-0.022,0.255-0.137,0.249-0.256c-0.006-0.118-0.209-0.65-0.292-0.65C29.656,47.345,29.504,47.737,29.406,47.698z"/>
				<path fill="#E5E7EB" d="M30.481,43.53c-0.075-0.133-0.643-0.115-0.781-0.126c-0.137-0.007-0.566-0.147-0.647-0.239
					c-0.078-0.088-0.139,0.35-0.269,0.409c-0.131,0.055,0.063,0.143,0.117,0.095c0.052-0.046-0.002,0.224-0.061,0.319
					c-0.059,0.094,0.375,0.159,0.427,0.301c0.048,0.145,0.228,0.234,0.399,0.205c0.171-0.024,0.516-0.205,0.637-0.216
					C30.424,44.266,30.556,43.663,30.481,43.53z"/>
				<path fill="#E5E7EB" d="M41.211,40.232c-0.118,0.122-0.315,1.034-0.38,1.136c-0.069,0.105,0.306,0.477,0.471,0.579
					c0.169,0.103,0.397,0.05,0.458,0.03c0.067-0.019-0.082-0.659-0.168-0.88c-0.089-0.223,0.631-0.626,0.825-0.822
					c0.191-0.198,0.999-0.461,1.09-0.663c0.092-0.202-0.057-0.367-0.139-0.367c-0.081,0-0.179,0.101-0.199,0.134
					c-0.02,0.031-0.94,0.252-1.225,0.387C41.66,39.9,41.333,40.111,41.211,40.232z"/>
				<path fill="#E5E7EB" d="M41.427,37.894c0.305,0.301,0.47-0.132,0.806-0.091c0-0.023-0.009-0.036-0.011-0.056
					c-0.109-0.104-0.22-0.211-0.331-0.315C41.664,37.436,41.412,37.615,41.427,37.894z"/>
				<path fill="#E5E7EB" d="M16.606,44.302c-0.09,0.082-0.012,0.497,0.157,0.51c0.171,0.012,0.441-0.625,0.65-0.502
					c0.205,0.13,0.349,0.18,0.312,0.112c-0.033-0.066-0.627-0.326-0.699-0.375C16.953,44.003,16.695,44.219,16.606,44.302z"/>
				<path fill="#E5E7EB" d="M18.776,58.39c0,0.068,0.369,0.06,0.428-0.056c0.059-0.112,0.028-0.205-0.071-0.205
					C19.035,58.129,18.776,58.318,18.776,58.39z"/>
				<path fill="#E5E7EB" d="M17.129,57.781c0.177-0.033,0.093,0.252,0.133,0.355c0.043,0.104,0.47,0.185,0.554,0.255
					c0.087,0.066,0.303-0.131,0.474-0.109c0.168,0.022-0.058-0.587-0.339-0.569c-0.287,0.018-0.512-0.259-0.579-0.293
					c-0.066-0.029-0.397-0.228-0.492-0.306c-0.092-0.076-0.818-0.14-1.066-0.14c-0.243,0-0.517,0.25-0.552,0.331
					c-0.041,0.085,0.39,0.141,0.512,0.076c0.126-0.064,0.699,0.071,0.813,0.21C16.706,57.729,16.95,57.815,17.129,57.781z"/>
				<path fill="#E5E7EB" d="M16.353,58.39c0,0.068,0.375,0.025,0.462,0.029c0.092,0.001,0.089-0.059-0.003-0.137
					C16.715,58.207,16.353,58.318,16.353,58.39z"/>
				<path fill="#E5E7EB" d="M16.617,56.469c-0.096-0.041-0.172,0.111-0.172,0.186c0,0.07,0.049,0.13,0.117,0.13
					C16.627,56.784,16.715,56.506,16.617,56.469z"/>
				<path fill="#E5E7EB" d="M17.403,56.527c-0.033-0.07-0.195-0.13-0.241-0.13c-0.051,0-0.084,0.124-0.075,0.271
					C17.094,56.823,17.435,56.597,17.403,56.527z"/>
				<path fill="#E5E7EB" d="M17.963,57.396c0.152-0.074,0.17-0.254,0.083-0.246c-0.091,0.012-0.257-0.26-0.353-0.298
					c-0.096-0.037-0.177,0.163-0.177,0.248c0,0.092,0.056,0.149,0.121,0.133C17.705,57.216,17.813,57.465,17.963,57.396z"/>
			</g>
		</g>
	</g>
	<g>
		<g>
			
				<rect x="50.724" y="89.633" transform="matrix(0.5584 0.8296 -0.8296 0.5584 100.0103 -1.5516)" fill="#D27D6D" width="1.476" height="7.046"/>
		</g>
		<g>
			
				<rect x="53.677" y="94.906" transform="matrix(0.7544 0.6564 -0.6564 0.7544 80.6729 -10.5337)" fill="#36A1B7" width="1.474" height="15.279"/>
		</g>
		<g>
			
				<rect x="63.84" y="100.525" transform="matrix(0.8981 0.4398 -0.4398 0.8981 52.3011 -17.6356)" fill="#B6BDBE" width="0.737" height="7.047"/>
		</g>
		<g>
			
				<rect x="71.88" y="103.14" transform="matrix(0.9811 0.1936 -0.1936 0.9811 22.0127 -11.9676)" fill="#B6BDBE" width="0.737" height="7.047"/>
		</g>
		<g>
			<path fill="#D27D6D" d="M54.274,115.5l-0.34-4.953l4.955-0.341l0.34,4.954L54.274,115.5z M54.721,111.232l0.239,3.481
				l3.483-0.238l-0.24-3.483L54.721,111.232z"/>
		</g>
	</g>
	<g>
		<path fill="#E5E7EB" d="M84.944,89.076c0,0.217-0.177,0.394-0.392,0.394H33.169c-0.218,0-0.393-0.177-0.393-0.394V15.893
			c0-0.218,0.175-0.393,0.393-0.393h51.384c0.215,0,0.392,0.175,0.392,0.393V89.076z"/>
		<path fill="#B6BDBE" d="M84.944,19.679v-3.786c0-0.218-0.177-0.393-0.392-0.393H33.169c-0.218,0-0.393,0.175-0.393,0.393v3.786
			H84.944z"/>
		<path fill="#CCD3D5" d="M32.776,80.351v8.726c0,0.217,0.175,0.394,0.393,0.394h51.384c0.215,0,0.392-0.177,0.392-0.394v-8.726
			H32.776z"/>
		<rect x="32.776" y="33.285" fill="#7DB285" width="52.168" height="19.727"/>
		<g>
			<rect x="44.635" y="39.391" fill="#FFFFFF" width="28.348" height="1.862"/>
			<g>
				<rect x="41.611" y="43.066" fill="#FFFFFF" width="34.396" height="0.465"/>
				<rect x="40.216" y="44.754" fill="#FFFFFF" width="37.186" height="0.467"/>
				<rect x="44.774" y="46.439" fill="#FFFFFF" width="28.07" height="0.467"/>
			</g>
		</g>
		<rect x="55.897" y="24.85" fill="#474E58" width="9.942" height="1.289"/>
		<rect x="51.881" y="23.845" fill="#474E58" width="3.028" height="3.299"/>
		<g>
			<rect x="39.427" y="28.983" fill="#B6BDBE" width="6.908" height="0.465"/>
			<rect x="47.419" y="28.983" fill="#B6BDBE" width="6.905" height="0.465"/>
			<rect x="55.406" y="28.983" fill="#B6BDBE" width="6.908" height="0.465"/>
			<rect x="63.396" y="28.983" fill="#B6BDBE" width="6.907" height="0.465"/>
			<rect x="71.382" y="28.983" fill="#B6BDBE" width="6.909" height="0.465"/>
		</g>
		<g>
			<g>
				<g>
					<polygon fill="#FFFFFF" points="82.222,44.115 81.94,43.912 82.494,43.148 81.94,42.386 82.222,42.183 82.922,43.148 					"/>
				</g>
				<g>
					<rect x="80.794" y="42.976" fill="#FFFFFF" width="1.914" height="0.347"/>
				</g>
			</g>
			<g>
				<g>
					<polygon fill="#FFFFFF" points="35.5,44.115 34.796,43.148 35.5,42.183 35.78,42.387 35.225,43.148 35.78,43.911 					"/>
				</g>
				<g>
					<rect x="35.01" y="42.976" fill="#FFFFFF" width="1.917" height="0.347"/>
				</g>
			</g>
		</g>
		<g>
			<g>
				<rect x="37.12" y="55.677" fill="#A8C89F" width="12.709" height="12.711"/>
				<path fill="#76AE7E" d="M49.656,55.85v12.365H37.292V55.85H49.656 M50.002,55.504H36.947v13.057h13.056V55.504L50.002,55.504z"
					/>
			</g>
			<g>
				<g>
					<path fill="#76AE7E" d="M37.364,68.315c-0.044,0-0.088-0.018-0.123-0.052c-0.067-0.067-0.067-0.177,0-0.244l12.22-12.218
						c0.068-0.067,0.179-0.066,0.245,0c0.067,0.068,0.067,0.178,0,0.246l-12.22,12.216C37.454,68.298,37.409,68.315,37.364,68.315z"
						/>
				</g>
				<g>
					<path fill="#76AE7E" d="M49.584,68.315c-0.044,0-0.089-0.018-0.123-0.052l-12.22-12.216c-0.067-0.068-0.067-0.178,0-0.246
						c0.068-0.067,0.178-0.067,0.246,0l12.22,12.218c0.067,0.067,0.067,0.177,0,0.244C49.673,68.298,49.629,68.315,49.584,68.315z"
						/>
				</g>
			</g>
		</g>
		<g>
			<g>
				<rect x="52.505" y="55.677" fill="#A8C89F" width="12.712" height="12.711"/>
				<path fill="#76AE7E" d="M65.043,55.85v12.365H52.678V55.85H65.043 M65.39,55.504H52.332v13.057H65.39V55.504L65.39,55.504z"/>
			</g>
			<g>
				<g>
					<path fill="#76AE7E" d="M52.75,68.315c-0.045,0-0.089-0.018-0.123-0.052c-0.068-0.067-0.068-0.177,0-0.244l12.218-12.218
						c0.068-0.067,0.178-0.066,0.245,0c0.067,0.068,0.067,0.178,0,0.246L52.873,68.264C52.839,68.298,52.794,68.315,52.75,68.315z"
						/>
				</g>
				<g>
					<path fill="#76AE7E" d="M64.968,68.315c-0.044,0-0.088-0.018-0.122-0.052L52.628,56.048c-0.068-0.068-0.068-0.178,0-0.246
						c0.068-0.066,0.177-0.067,0.245,0L65.091,68.02c0.067,0.067,0.067,0.177,0,0.244C65.057,68.298,65.012,68.315,64.968,68.315z"
						/>
				</g>
			</g>
		</g>
		<g>
			<g>
				<rect x="67.889" y="55.677" fill="#A8C89F" width="12.713" height="12.711"/>
				<path fill="#76AE7E" d="M80.428,55.85v12.365H68.063V55.85H80.428 M80.774,55.504H67.716v13.057h13.059V55.504L80.774,55.504z"
					/>
			</g>
			<g>
				<g>
					<path fill="#76AE7E" d="M68.137,68.315c-0.044,0-0.088-0.018-0.122-0.052c-0.067-0.067-0.067-0.177,0-0.244l12.217-12.218
						c0.068-0.067,0.179-0.066,0.245,0c0.067,0.068,0.067,0.178,0,0.246L68.26,68.264C68.226,68.298,68.181,68.315,68.137,68.315z"
						/>
				</g>
				<g>
					<path fill="#76AE7E" d="M80.354,68.315c-0.044,0-0.089-0.018-0.123-0.052L68.015,56.048c-0.067-0.068-0.067-0.178,0-0.246
						c0.067-0.067,0.177-0.067,0.245,0L80.477,68.02c0.067,0.067,0.067,0.177,0,0.244C80.442,68.298,80.398,68.315,80.354,68.315z"
						/>
				</g>
			</g>
		</g>
		<g>
			<g>
				<path fill="none" stroke="#B6BDBE" stroke-width="0.4693" stroke-linecap="round" d="M68.139,68.142"/>
			</g>
			<g>
				<path fill="none" stroke="#B6BDBE" stroke-width="0.4693" stroke-linecap="round" d="M80.354,55.925"/>
			</g>
		</g>
		<g>
			<rect x="36.947" y="71.222" fill="#B6BDBE" width="12.788" height="0.466"/>
			<rect x="36.947" y="72.432" fill="#B6BDBE" width="11.635" height="0.465"/>
			<rect x="36.947" y="73.643" fill="#B6BDBE" width="12.788" height="0.464"/>
			<rect x="36.947" y="74.853" fill="#B6BDBE" width="10.205" height="0.466"/>
			<g>
				<rect x="36.947" y="70.069" fill="#B6BDBE" width="6.906" height="0.467"/>
			</g>
		</g>
		<g>
			<rect x="36.947" y="84.508" fill="#B6BDBE" width="12.788" height="0.464"/>
			<rect x="36.947" y="85.414" fill="#B6BDBE" width="11.635" height="0.466"/>
			<g>
				<rect x="36.947" y="83.354" fill="#B6BDBE" width="6.906" height="0.467"/>
			</g>
		</g>
		<g>
			<rect x="52.332" y="71.222" fill="#B6BDBE" width="12.79" height="0.466"/>
			<rect x="52.332" y="72.432" fill="#B6BDBE" width="11.639" height="0.465"/>
			<rect x="52.332" y="73.643" fill="#B6BDBE" width="12.79" height="0.464"/>
			<rect x="52.332" y="74.853" fill="#B6BDBE" width="10.206" height="0.466"/>
			<g>
				<rect x="52.332" y="70.069" fill="#B6BDBE" width="6.907" height="0.467"/>
			</g>
		</g>
		<g>
			<rect x="67.716" y="71.222" fill="#B6BDBE" width="12.793" height="0.466"/>
			<rect x="67.716" y="72.432" fill="#B6BDBE" width="11.642" height="0.465"/>
			<rect x="67.716" y="73.643" fill="#B6BDBE" width="12.793" height="0.464"/>
			<rect x="67.716" y="74.853" fill="#B6BDBE" width="10.21" height="0.466"/>
			<g>
				<rect x="67.716" y="70.069" fill="#B6BDBE" width="6.911" height="0.467"/>
			</g>
		</g>
		<circle fill="#B6BDBE" cx="79.694" cy="84.618" r="1.082"/>
		<circle fill="#B6BDBE" cx="76.901" cy="84.618" r="1.082"/>
		<circle fill="#B6BDBE" cx="74.111" cy="84.618" r="1.083"/>
		<circle fill="#3094A4" cx="38.847" cy="17.553" r="0.669"/>
		<circle fill="#C7796A" cx="36.663" cy="17.553" r="0.668"/>
		<circle fill="#404751" cx="34.48" cy="17.553" r="0.669"/>
	</g>
	<g>
		<path fill="#474E58" d="M60.814,76.522c0,11.624,9.423,21.046,21.048,21.046c11.628,0,21.048-9.422,21.048-21.046
			c0-11.63-9.42-21.052-21.048-21.052C70.237,55.471,60.814,64.893,60.814,76.522z M92.914,76.522
			c0,6.101-4.944,11.047-11.052,11.047c-6.103,0-11.051-4.946-11.051-11.047c0-6.106,4.948-11.055,11.051-11.055
			C87.97,65.468,92.914,70.416,92.914,76.522z"/>
		<path fill="#30363D" d="M67.918,76.522c0,7.698,6.244,13.943,13.944,13.943c7.704,0,13.945-6.245,13.945-13.943
			c0-7.704-6.241-13.948-13.945-13.948C74.162,62.574,67.918,68.818,67.918,76.522z M92.914,76.522
			c0,6.101-4.944,11.047-11.052,11.047c-6.103,0-11.051-4.946-11.051-11.047c0-6.106,4.948-11.055,11.051-11.055
			C87.97,65.468,92.914,70.416,92.914,76.522z"/>
		<g>
			<polygon fill="#474E58" points="64.499,71.656 64.499,81.386 57.131,79.807 57.131,73.23 			"/>
			<polygon fill="#474E58" points="64.436,80.625 69.301,89.053 62.133,91.371 58.843,85.673 			"/>
			<polygon fill="#474E58" points="68.862,88.423 77.295,93.294 72.244,98.884 66.546,95.593 			"/>
			<polygon fill="#474E58" points="76.599,92.966 86.335,92.966 84.756,100.334 78.177,100.332 			"/>
			<polygon fill="#474E58" points="85.573,93.03 94.004,88.164 96.318,95.332 90.621,98.62 			"/>
			<polygon fill="#474E58" points="93.372,88.599 98.242,80.17 103.828,85.222 100.544,90.916 			"/>
			<polygon fill="#474E58" points="97.915,80.864 97.915,71.13 105.28,72.705 105.28,79.283 			"/>
			<polygon fill="#474E58" points="97.979,71.893 93.111,63.46 100.28,61.144 103.566,66.84 			"/>
			<polygon fill="#474E58" points="93.55,64.092 85.118,59.223 90.168,53.632 95.865,56.922 			"/>
			<polygon fill="#474E58" points="85.811,59.548 76.075,59.549 77.653,52.183 84.231,52.183 			"/>
			<polygon fill="#474E58" points="76.839,59.485 68.407,64.354 66.091,57.182 71.789,53.895 			"/>
			<polygon fill="#474E58" points="69.039,63.914 64.172,72.348 58.58,67.294 61.868,61.6 			"/>
		</g>
	</g>
	<g>
		
			<rect x="102.962" y="50.633" transform="matrix(0.6068 0.7949 -0.7949 0.6068 83.6807 -60.8399)" fill="#B6BDBE" width="0.737" height="7.046"/>
	</g>
	<g>
		
			<rect x="99.678" y="36.844" transform="matrix(0.7868 0.6172 -0.6172 0.7868 48.9631 -52.2072)" fill="#36A1B7" width="0.737" height="15.842"/>
	</g>
	<g>
		
			<rect x="89.6" y="40.506" transform="matrix(0.9228 0.3853 -0.3853 0.9228 23.9089 -31.2636)" fill="#B6BDBE" width="0.738" height="7.048"/>
	</g>
	<path fill="#D27D6D" d="M92.939,36.104c-0.103-0.388,0.128-0.783,0.518-0.887c0.384-0.102,0.779,0.129,0.884,0.517
		c0.102,0.386-0.129,0.783-0.516,0.886C93.438,36.721,93.042,36.489,92.939,36.104z"/>
	<g>
		
			<rect x="98.396" y="33.946" transform="matrix(0.8643 0.503 -0.503 0.8643 33.361 -44.4899)" fill="#D27D6D" width="1.476" height="11.274"/>
	</g>
	<g>
		<path fill="#36A1B7" d="M109.387,49.093l-4.203-4.202l5.741-1.538L109.387,49.093z M106.609,45.272l2.396,2.396l0.877-3.272
			L106.609,45.272z"/>
	</g>
	<g>
		<path fill="#D27D6D" d="M105.767,61.813c-0.834,0-1.513-0.678-1.513-1.513c0-0.833,0.679-1.511,1.513-1.511
			s1.514,0.678,1.514,1.511C107.28,61.136,106.601,61.813,105.767,61.813z M105.767,59.527c-0.427,0-0.774,0.348-0.774,0.773
			c0,0.428,0.348,0.775,0.774,0.775c0.428,0,0.776-0.348,0.776-0.775C106.543,59.875,106.194,59.527,105.767,59.527z"/>
	</g>
</g>
</svg>
